<svg width="25" height="24" viewBox="0 0 25 24" xmlns="http://www.w3.org/2000/svg"><title>ico-pos-bus</title><desc>Created with Sketch.</desc><g fill="none"><path d="M24.361 12.005c0 6.262-5.14 11.339-11.481 11.339s-11.481-5.077-11.481-11.339c0-6.262 5.14-11.339 11.481-11.339s11.481 5.077 11.481 11.339" stroke="#000" fill="#FED792"/><g><path d="M8.647 18.836v-1.032h-1.363v1.032c0 .179.138.315.319.315h.726c.181 0 .319-.136.319-.315zm-1.728-7.237h5.551v-4.941h-5.551v4.941zm11.559 7.237v-1.032h-1.364v1.032c0 .179.138.315.319.315h.726c.181 0 .319-.136.319-.315zm.365-12.992v-.672c0-.179-.138-.312-.319-.312h-11.286c-.181 0-.319.133-.319.312v.672h11.923zm-5.551 5.755h5.551v-4.941h-5.551v4.941zm5.551 5.395v-4.584h-11.923v4.584h11.924zm.821-11.821v12.227c0 .208-.159.381-.365.403v1.035c0 .621-.51 1.125-1.139 1.125h-.726c-.629 0-1.139-.504-1.139-1.125v-1.032h-6.826v1.032c0 .621-.51 1.125-1.139 1.125h-.726c-.629 0-1.139-.504-1.139-1.125v-1.035c-.205-.021-.365-.195-.365-.403v-12.227c0-.621.51-1.125 1.139-1.125h11.286c.629 0 1.139.504 1.139 1.125z" fill="#000"/><path d="M18.842 14.703v2.291h-4.142v-.448c.227 0 .413-.181.413-.405v-1.437h.451c0 .717.591 1.304 1.32 1.304.729 0 1.323-.587 1.323-1.304h.634z" fill="#4D7FB4"/><path d="M18.842 12.41v2.293h-.634c0-.72-.594-1.307-1.323-1.307s-1.32.587-1.32 1.307h-.451c0-.224-.186-.408-.413-.408h-3.681c-.213.021-.373.195-.373.408h-.451c0-.72-.594-1.307-1.32-1.307-.729 0-1.323.587-1.323 1.307h-.635v-2.293h11.923z" fill="#4D7FB4"/><path fill="#B9E1ED" d="M13.291 11.599h5.551v-4.941h-5.551z"/><path d="M18.842 5.172v.672h-11.923v-.672c0-.179.138-.312.319-.312h11.286c.181 0 .319.133.319.312" fill="#47BFE2"/><path d="M18.478 17.804v1.032c0 .179-.138.315-.319.315h-.726c-.181 0-.319-.136-.319-.315v-1.032h1.363z" fill="#636463"/><path d="M17.384 14.703c0-.277-.219-.493-.499-.493-.278 0-.497.216-.497.493 0 .275.219.491.497.491.281 0 .499-.216.499-.491m-.499-1.307c.729 0 1.323.587 1.323 1.307 0 .717-.594 1.304-1.323 1.304s-1.32-.587-1.32-1.304c0-.72.591-1.307 1.32-1.307" fill="#000"/><path d="M16.885 14.21c.281 0 .499.216.499.493 0 .275-.219.491-.499.491-.278 0-.497-.216-.497-.491 0-.277.219-.493.497-.493" fill="#FFFFFE"/><path d="M11.471 15.735h2.819v-.627h-2.819v.627zm3.642-1.032v1.437c0 .224-.186.405-.413.405h-3.64c-.227 0-.413-.181-.413-.405v-1.437c0-.213.159-.387.373-.408h3.681c.227 0 .413.184.413.408z" fill="#000"/><path d="M14.7 16.546v.448h-7.782v-2.291h.635c0 .717.594 1.304 1.323 1.304.726 0 1.32-.587 1.32-1.304h.451v1.437c0 .224.186.405.413.405h3.64z" fill="#4D7FB4"/><path fill="#B9E1ED" d="M11.471 15.735h2.819v-.627h-2.819z"/><path fill="#B9E1ED" d="M6.919 11.599h5.551v-4.941h-5.551z"/><path d="M9.373 14.703c0-.277-.219-.493-.497-.493-.281 0-.499.216-.499.493 0 .275.219.491.499.491.278 0 .497-.216.497-.491m-.497-1.307c.726 0 1.32.587 1.32 1.307 0 .717-.594 1.304-1.32 1.304-.729 0-1.323-.587-1.323-1.304 0-.72.594-1.307 1.323-1.307" fill="#000"/><path d="M8.876 14.21c.278 0 .497.216.497.493 0 .275-.219.491-.497.491-.281 0-.499-.216-.499-.491 0-.277.219-.493.499-.493" fill="#FFFFFE"/><path d="M8.647 17.804v1.032c0 .179-.138.315-.319.315h-.726c-.181 0-.319-.136-.319-.315v-1.032h1.363z" fill="#636463"/></g></g></svg>