<svg width="25" height="24" viewBox="0 0 25 24" xmlns="http://www.w3.org/2000/svg"><title>ico-pos-coiffeur</title><desc>Created with Sketch.</desc><g fill="none"><path d="M24.361 12.005c0 6.262-5.14 11.339-11.481 11.339s-11.481-5.077-11.481-11.339c0-6.262 5.14-11.339 11.481-11.339s11.481 5.077 11.481 11.339" stroke="#000" fill="#FED792"/><g><path d="M18.137 8.53c.292.284.297.75.01 1.039l-.01.007h.019l-9.245 9.114c-.349.345-.917.345-1.265 0-.349-.345-.349-.905 0-1.25l3.777-3.73c.14-.143.14-.371 0-.514l-2.381-2.333.613-.607 2.234 2.169.52-.514-2.213-2.187.781-.771 2.213 2.185.52-.514-2.194-2.204.781-.771 2.213 2.185.522-.514-2.215-2.188.8-.79 2.215 2.188.52-.516-2.213-2.185.632-.624 3.366 3.325z" fill="#B79267"/><path d="M18.146 9.569c.287-.289.282-.755-.01-1.039l-3.366-3.325-.631.624 2.213 2.185-.52.516-2.215-2.188-.8.79 2.215 2.188-.522.514-2.213-2.185-.781.771 2.194 2.204-.52.513-2.213-2.185-.781.771 2.213 2.188-.52.514-2.234-2.169-.613.607 2.381 2.333c.14.143.14.37 0 .513l-3.777 3.731c-.349.345-.349.905 0 1.25s.917.345 1.265 0l9.245-9.114h-.019l.01-.007zm-7.524 3.885l-2.343-2.371c-.142-.143-.142-.373 0-.513l.874-.865.52-.514.781-.771.539-.532.783-.771.52-.516.781-.771.446-.441.985-.954c.145-.141.377-.141.522 0l3.644 3.581c.579.575.579 1.503 0 2.078l-9.226 9.112c-.636.635-1.674.638-2.315.009-.323-.317-.487-.731-.487-1.149 0-.41.159-.823.477-1.137l3.497-3.473z" fill="#000"/></g></g></svg>