<svg width="25" height="24" viewBox="0 0 25 24" xmlns="http://www.w3.org/2000/svg"><title>ico-pos-livraison</title><desc>Created with Sketch.</desc><g fill="none"><path d="M24.361 12.005c0 6.262-5.14 11.339-11.481 11.339s-11.481-5.077-11.481-11.339c0-6.262 5.14-11.339 11.481-11.339s11.481 5.077 11.481 11.339" stroke="#000" fill="#FED792"/><g><path d="M20.606 12.387v3.219h-.84l-.024-.099-.056-.157-.016-.04-.016-.051-.016-.045c-.048-.112-.107-.219-.171-.315l-.021-.029-.029-.035-.176-.216-.059-.053-.035-.032-.181-.147-.115-.077-.2-.109-.123-.056-.237-.072-.048-.013-.069-.019c-.267-.051-.483-.051-.752 0l-.069.019-.045.013-.237.072-.117.053-.208.112-.115.077-.181.147-.029.029-.061.056-.179.216-.029.035-.019.027c-.067.099-.123.205-.173.317l-.016.045-.016.051-.016.04-.053.157-.027.099h-.797v-6.125h3.637l1.936 2.907z" fill="#CBCCCB"/><path d="M19.001 16.009c0 .664-.539 1.203-1.203 1.203s-1.203-.539-1.203-1.203.539-1.203 1.203-1.203 1.203.539 1.203 1.203" fill="#FFFFFE"/><path d="M14.23 12.667v2.939h-2.485l-.027-.099-.053-.157-.016-.045-.019-.048-.013-.043c-.048-.112-.107-.219-.173-.317l-.019-.027-.027-.032-.181-.219-.059-.056-.032-.029-.181-.147-.115-.077-.2-.109-.125-.056-.237-.072-.045-.013-.069-.019c-.269-.051-.483-.051-.752 0l-.069.019-.045.013-.237.072-.115.051-.211.115-.115.075-.181.149-.032.029-.061.056-.179.219-.027.035-.021.027c-.064.096-.123.203-.171.315l-.016.045-.029.085-.056.163-.027.099h-1.373v-2.939h7.795z" fill="#9E9F9E"/><path fill="#4D7FB4" d="M6.436 11.865h7.795v-4.547h-7.795z"/><path d="M6.436 11.865h7.795v-4.547h-7.795v4.547zm4.544 4.144c0-.664-.539-1.203-1.203-1.203s-1.203.539-1.203 1.203.539 1.203 1.203 1.203 1.203-.539 1.203-1.203zm.731.501c-.229.885-1.024 1.504-1.933 1.504s-1.704-.619-1.933-1.504l-.027-.099h-1.784c-.221 0-.4-.181-.4-.403v-9.091c0-.221.179-.403.4-.403h8.6c.221 0 .4.181.4.403v1.757h3.851c.136 0 .261.069.336.181l2.123 3.187c.043.067.067.141.067.221v3.744c0 .221-.181.403-.403.403h-1.248l-.027.099c-.229.885-1.024 1.504-1.933 1.504s-1.704-.619-1.933-1.504l-.027-.099h-4.101l-.027.099zm7.96-1.2l.016.04.056.157.024.099h.84v-3.219l-1.936-2.907h-3.637v6.125h.797l.027-.099.053-.157.016-.04.016-.051.016-.045.173-.317.019-.027.029-.035.179-.216.061-.056.029-.029.181-.147.115-.077.208-.112.117-.053.237-.072.045-.013.069-.019c.269-.051.485-.051.752 0l.069.019.048.013.237.072.123.056.2.109.115.077.181.147.035.032.059.053.176.216.029.035.021.029c.064.096.123.203.171.315l.016.045.016.051zm-1.872 1.901c.664 0 1.203-.539 1.203-1.203s-.539-1.203-1.203-1.203-1.203.539-1.203 1.203.539 1.203 1.203 1.203zm-6.133-1.861l.053.157.027.099h2.485v-2.939h-7.795v2.939h1.373l.027-.099.056-.163.029-.085.016-.045c.048-.112.107-.219.171-.315l.021-.027.027-.035.179-.219.061-.056.032-.029.181-.149.115-.075.211-.115.115-.051.237-.072.045-.013.069-.019c.269-.051.483-.051.752 0l.069.019.045.013.237.072.125.056.2.109.115.077.181.147.032.029.059.056.181.219.027.032.019.027c.067.099.125.205.173.317l.013.043.019.048.016.045z" fill="#000"/><path d="M10.98 16.009c0 .664-.539 1.203-1.203 1.203s-1.203-.539-1.203-1.203.539-1.203 1.203-1.203 1.203.539 1.203 1.203" fill="#FFFFFE"/></g></g></svg>