<svg width="25" height="24" viewBox="0 0 25 24" xmlns="http://www.w3.org/2000/svg"><title>ico-pos-station_essence</title><desc>Created with Sketch.</desc><g fill="none"><path d="M24.361 12.005c0 6.262-5.14 11.339-11.481 11.339s-11.481-5.077-11.481-11.339c0-6.262 5.14-11.339 11.481-11.339s11.481 5.077 11.481 11.339" stroke="#000" fill="#FED792"/><g><path d="M8.43 12.126h6.736v-5.656h-6.736v5.656zm0 5.413h6.736v-4.571h-6.736v4.571zm11.491-11.912c.232 0 .421.189.421.421 0 .232-.189.421-.421.421-.963 0-1.744.784-1.744 1.744v6.541c0 .232-.189.421-.424.421h-1.744v2.363h1.744c.235 0 .424.189.424.421 0 .232-.189.421-.424.421h-11.909c-.235 0-.421-.189-.421-.421 0-.232.187-.421.421-.421h1.744v-11.491c0-.232.189-.421.421-.421h7.579c.232 0 .421.189.421.421v8.285h1.323v-6.12c0-1.427 1.163-2.587 2.589-2.587z" fill="#000"/><path fill="#BE2937" d="M8.43 17.539h6.736v-4.571h-6.736z"/><path d="M13.843 10.379v-2.165c0-.232-.189-.421-.421-.421h-3.248c-.232 0-.421.189-.421.421v2.165c0 .235.189.421.421.421h3.248c.232 0 .421-.187.421-.421zm-5.413 1.747h6.736v-5.656h-6.736v5.656z" fill="#B4B4B4"/><path d="M10.595 9.958h2.405v-1.323h-2.405v1.323zm3.248-1.744v2.165c0 .235-.189.421-.421.421h-3.248c-.232 0-.421-.187-.421-.421v-2.165c0-.232.189-.421.421-.421h3.248c.232 0 .421.189.421.421z" fill="#000"/><path fill="#FFFFFE" d="M10.595 9.958h2.405v-1.323h-2.405z"/></g></g></svg>