<svg width="24" height="24" viewBox="0 0 24 24" xmlns="http://www.w3.org/2000/svg"><title>ico-pos-fourriere</title><desc>Created with Sketch.</desc><g fill="none"><path d="M23.361 12.005c0 6.262-5.14 11.339-11.481 11.339s-11.481-5.077-11.481-11.339c0-6.262 5.14-11.339 11.481-11.339s11.481 5.077 11.481 11.339" fill="#FAD6A1"/><path d="M11.88 1.066c-6.11 0-11.081 4.907-11.081 10.939 0 6.031 4.971 10.938 11.081 10.938 6.11 0 11.081-4.907 11.081-10.938 0-6.032-4.971-10.939-11.081-10.939m0 22.677c-6.551 0-11.881-5.266-11.881-11.738 0-6.473 5.33-11.739 11.881-11.739s11.881 5.266 11.881 11.739c0 6.473-5.33 11.738-11.881 11.738" fill="#1A1919"/><g><path fill="#1A1919" d="M16.01 7.614l-.333 1.947-.781-.133.333-1.947z"/><path fill="#1A1919" d="M15.677 9.56l-.232 1.357-.781-.133-.563-.563.795-.795z"/><path d="M15.445 10.918l-.312 1.824c-.037.189-.2.323-.389.323h-.336v-.792l.256-1.488.781.133z" fill="#1A1919"/><path fill="#FFF36F" d="M15.229 7.48l-.333 1.947-.795.795-2.048 2.051h-1.616z"/><path fill="#FFF36F" d="M14.426 5.544l.784.829-5.861 5.861-.237-1.379z"/><path fill="#FFF36F" d="M14.663 10.784l-.256 1.488h-1.232z"/><path d="M14.239 16.616c.147.256.176.549.176.944 0 1.405-1.144 2.549-2.552 2.549-1.347 0-2.464-1.053-2.547-2.397l-.013-.229 1.109 1.109c.595.592 1.635.589 2.229 0 .613-.616.613-1.616-.005-2.235l-1.435-1.301-.552-1.992h2.363l-.557 1.461-.019.123c0 .109.045.216.125.291.605.576 1.547 1.491 1.653 1.64l.024.037z" fill="#FFFFFE"/><path fill="#FFF36F" d="M13.711 4.79l.168.176-4.931 4.933-.237-1.379 3.731-3.731z"/><path fill="#FFF36F" d="M11.319 4.79l-2.773 2.771-.171-1 1.675-1.771z"/><path d="M11.202 15.056l1.435 1.301c.619.619.619 1.619.005 2.235-.595.589-1.635.592-2.229 0l-1.109-1.109.013.229c.083 1.344 1.2 2.397 2.547 2.397 1.408 0 2.552-1.144 2.552-2.549 0-.395-.029-.688-.176-.944l-.024-.037c-.107-.149-1.048-1.064-1.653-1.64-.08-.075-.125-.181-.125-.291l.019-.123.557-1.461h-2.363l.552 1.992zm-.229 2.973c.296.296.813.293 1.107 0 .299-.301.299-.797-.003-1.107l-1.488-1.349c-.056-.048-.096-.112-.117-.181l-.645-2.328h-.808c-.189 0-.352-.131-.387-.315l-1.072-6.253-.005-.067c0-.101.037-.197.109-.272l1.773-1.877v-3.213c0-.221.181-.4.4-.4.221 0 .4.179.4.4v2.928h3.288v-2.928c0-.221.179-.4.4-.4.221 0 .4.179.4.4v3.216l1.776 1.877c.069.072.107.168.107.269l-.005.067-.192 1.117-.781-.133-4.792 4.792h1.616l2.048-2.051.563.563-1.488 1.488h1.232v.792h-.544l-.563 1.477.043.04.597.571c.813.789.944.979.997 1.091.237.421.269.883.269 1.317 0 1.843-1.499 3.344-3.344 3.344-1.845 0-3.344-1.501-3.344-3.344 0-.333.051-.667.149-.992.043-.171.203-.296.384-.296.099 0 .195.037.264.101l1.656 1.656zm.347-13.24h-1.269l-1.675 1.771.171 1 2.773-2.771zm-1.971 7.445l5.861-5.861-.784-.829-5.315 5.312.237 1.379zm-.4-2.336l4.931-4.933-.168-.176h-1.269l-3.731 3.731.237 1.379z" fill="#1A1919"/></g></g></svg>