<svg width="25" height="25" viewBox="0 0 25 25" xmlns="http://www.w3.org/2000/svg"><title>ico-pos-shop-masque</title><desc>Created with Sketch.</desc><g fill="none"><path d="M24.202 12.525c0 6.291-5.164 11.391-11.534 11.391-6.37 0-11.534-5.1-11.534-11.391s5.164-11.391 11.534-11.391c6.37 0 11.534 5.1 11.534 11.391" stroke="#000" fill="#B4B5B4"/><g><path d="M20.573 13.474c.252-1.364-.185-2.663-1.171-3.472-1.294-1.058-4.045-1.599-6.783-1.599-2.54 0-5.066.463-6.419 1.409-1.098.764-1.65 2.066-1.479 3.483.171 1.388 1.034 2.54 2.253 3.003 1.224.477 2.936.573 4.005-.287.212-.169.386-.321.538-.455.445-.394.766-.611 1.117-.611.378 0 .79.257 1.425.825 1.082.967 2.435 1.155 4.139.571 1.235-.415 2.122-1.487 2.374-2.867m.873-.755c0 .295-.027.597-.083.9-.303 1.648-1.415 2.982-2.904 3.483-.726.249-1.407.372-2.044.372-1.101 0-2.068-.37-2.893-1.106-.849-.761-.847-.761-1.473-.209-.161.139-.34.3-.568.48-1.409 1.133-3.464.93-4.796.41-1.495-.568-2.553-1.969-2.759-3.657-.209-1.69.488-3.314 1.814-4.238 3.151-2.202 11.362-2.068 14.172.228.991.814 1.535 2.02 1.535 3.338" fill="#000"/><path d="M11.255 13.235c.129-.153.129-.375 0-.525-.686-.798-1.554-1.24-2.446-1.24-.892 0-1.76.442-2.446 1.24-.129.15-.129.372 0 .525.686.798 1.554 1.238 2.446 1.238.892 0 1.76-.439 2.446-1.238m8.077 0c.129-.153.129-.375 0-.525-.686-.798-1.554-1.24-2.446-1.24-.892 0-1.76.442-2.446 1.24-.129.15-.129.372 0 .525.686.798 1.554 1.238 2.446 1.238.892 0 1.76-.439 2.446-1.238m.07-3.234c.986.809 1.423 2.108 1.171 3.472-.252 1.38-1.139 2.451-2.374 2.867-1.704.584-3.057.397-4.139-.571-.635-.568-1.048-.825-1.425-.825-.351 0-.672.217-1.117.611-.153.134-.327.287-.538.455-1.069.86-2.781.764-4.005.287-1.219-.463-2.082-1.615-2.253-3.003-.171-1.417.38-2.719 1.479-3.483 1.353-.946 3.879-1.409 6.419-1.409 2.738 0 5.489.541 6.783 1.599" fill="#4D4D4D"/><path d="M18.475 12.973c-.48-.458-1.023-.699-1.589-.699-.565 0-1.106.241-1.589.699.482.458 1.023.697 1.589.697.565 0 1.109-.238 1.589-.697m.857-.263c.129.15.129.372 0 .525-.686.798-1.554 1.238-2.446 1.238-.892 0-1.76-.439-2.446-1.238-.129-.153-.129-.375 0-.525.686-.798 1.554-1.24 2.446-1.24.892 0 1.76.442 2.446 1.24" fill="#000"/><path d="M10.398 12.973c-.48-.458-1.023-.699-1.589-.699-.565 0-1.109.241-1.589.699.48.458 1.023.697 1.589.697.565 0 1.109-.238 1.589-.697m.857-.263c.129.15.129.372 0 .525-.686.798-1.554 1.238-2.446 1.238-.892 0-1.76-.439-2.446-1.238-.129-.153-.129-.375 0-.525.686-.798 1.554-1.24 2.446-1.24.892 0 1.76.442 2.446 1.24" fill="#000"/></g></g></svg>