<svg width="25" height="24" viewBox="0 0 25 24" xmlns="http://www.w3.org/2000/svg"><title>ico-pos-taxi</title><desc>Created with Sketch.</desc><g fill="none"><path d="M24.361 12.005c0 6.262-5.14 11.339-11.481 11.339s-11.481-5.077-11.481-11.339c0-6.262 5.14-11.339 11.481-11.339s11.481 5.077 11.481 11.339" stroke="#000" fill="#FED792"/><g><path d="M20.944 11.904h-.152c-.541 0-.987-.392-1.069-.912.496.157.931.483 1.221.912" fill="#E36A5B"/><path d="M18.589 15.675c0-.283-.229-.512-.512-.512-.28 0-.509.229-.509.512 0 .28.229.509.509.509.283 0 .512-.229.512-.509m.811 0c0 .728-.592 1.323-1.323 1.323-.728 0-1.323-.595-1.323-1.323 0-.731.595-1.325 1.323-1.325.731 0 1.323.595 1.323 1.325" fill="#000"/><path d="M18.077 15.163c.283 0 .512.229.512.512 0 .28-.229.509-.512.509-.28 0-.509-.229-.509-.509 0-.283.229-.512.509-.512" fill="#FFFFFE"/><path fill="#000" d="M16.896 12.005h.803v-.803h-.803z"/><path fill="#000" d="M16.093 12.808h.803v-.803h-.803z"/><path d="M18.077 14.349c-.728 0-1.323.595-1.323 1.325 0 .728.595 1.323 1.323 1.323.731 0 1.323-.595 1.323-1.323 0-.731-.592-1.325-1.323-1.325m-1.733 1.325c0-.957.779-1.736 1.733-1.736.957 0 1.736.779 1.736 1.736-.003.955-.779 1.733-1.736 1.733-.955 0-1.733-.779-1.733-1.733" fill="#4D4E4C"/><path d="M13.285 10.072h2.2c-.597-.669-1.107-1.024-1.992-1.024h-.208v1.024zm2.901-.435c.192.219.237.533.115.8-.123.269-.395.445-.693.445h-2.728c-.224 0-.405-.184-.405-.405v-1.835c0-.224.181-.408.405-.408h.613c1.229 0 1.941.539 2.693 1.403z" fill="#000"/><path fill="#000" d="M15.29 12.005h.803v-.803h-.803z"/><path d="M15.485 10.072h-2.2v-1.024h.208c.885 0 1.395.355 1.992 1.024" fill="#B9E1ED"/><path fill="#000" d="M14.488 12.808h.803v-.803h-.803z"/><path fill="#000" d="M13.682 12.005h.805v-.803h-.805z"/><path fill="#000" d="M12.88 12.808h.803v-.803h-.803z"/><path fill="#FFFFFE" d="M10.536 7.013h2.549v-.411h-2.549z"/><path fill="#000" d="M12.077 12.005h.803v-.803h-.803z"/><path fill="#000" d="M11.274 12.808h.803v-.803h-.803z"/><path d="M11 10.069v-1.021h-.781c-.309 0-.6.12-.819.339h-.003c-.184.187-.301.424-.331.683h1.933zm.811-1.427v1.835c0 .221-.181.405-.405.405h-2.752c-.224 0-.405-.184-.405-.405v-.269c0-.952.677-1.749 1.576-1.933.128-.027.259-.04.395-.04h1.187c.224 0 .405.184.405.408z" fill="#000"/><path fill="#000" d="M10.472 12.005h.803v-.803h-.803z"/><path fill="#000" d="M9.669 12.808h.803v-.803h-.803z"/><path d="M10.325 7.861l3.341-.037h.035c.925 0 1.811.395 2.432 1.083l1.608 1.789c.072.08.173.128.28.133l.875.048c.032 1.016.869 1.837 1.896 1.84h.496c.035.157.053.317.053.48v1.765h-.821l-.059-.176-.091-.213-.016-.035-.101-.184-.027-.045-.107-.155-.043-.053-.096-.115-.067-.075-.101-.099-.077-.069-.109-.088-.083-.061-.12-.08-.085-.051-.125-.067-.093-.045-.128-.053-.107-.04-.117-.035-.131-.032-.101-.021-.155-.024-.088-.008-.173-.008h-.083l-.165.008-.104.011-.136.019-.131.027-.096.027-.269.088-.024.011-.216-.512v-.803h.803v-.803h-.803v.803h-.803v-.803h-.803v.803h-.803v-.803h-.805v.803h-.803v-.803h-.803v.803h-.803v-.803h-.803v.803h-.803v-1.123h1.736c.224 0 .405-.184.405-.405v-1.835c0-.224-.181-.408-.405-.408h-1.187c-.136 0-.267.013-.395.04l-.069-.347c.187-.043.376-.064.571-.067m5.861 1.776c-.752-.864-1.464-1.403-2.693-1.403h-.613c-.224 0-.405.184-.405.408v1.835c0 .221.181.405.405.405h2.728c.299 0 .571-.176.693-.445.123-.267.077-.581-.115-.8" fill="#FFF36F"/><path fill="#000" d="M8.866 12.005h.803v-.803h-.803z"/><path d="M8.805 15.675c0-.283-.229-.512-.509-.512-.283 0-.512.229-.512.512 0 .28.229.509.512.509.28 0 .509-.229.509-.509m-.509-1.325c.728 0 1.323.595 1.323 1.325 0 .728-.595 1.323-1.323 1.323-.731 0-1.325-.595-1.325-1.323 0-.731.595-1.325 1.325-1.325" fill="#000"/><path d="M9.4 9.387c.219-.219.509-.339.819-.339h.781v1.021h-1.933c.029-.259.147-.496.331-.683h.003z" fill="#B9E1ED"/><path fill="#000" d="M8.866 12.005v.803h-.8029999999999999v-.803z"/><path d="M8.296 15.163c.28 0 .509.229.509.512 0 .28-.229.509-.509.509-.283 0-.512-.229-.512-.509 0-.283.229-.512.512-.512" fill="#FFFFFE"/><path d="M4.421 13.128h.717v-.411h-.717v.411zm5.608 2.547c0-.957-.779-1.736-1.733-1.736-.957 0-1.736.779-1.736 1.736.003.955.779 1.733 1.736 1.733.955 0 1.733-.779 1.733-1.733zm.507-8.661h2.549v-.411h-2.549v.411zm7.541 10.395c.957 0 1.733-.779 1.736-1.733 0-.957-.779-1.736-1.736-1.736-.955 0-1.733.779-1.733 1.736 0 .955.779 1.733 1.733 1.733zm2.715-5.504h.152c-.291-.429-.725-.755-1.221-.912.083.52.528.912 1.069.912zm1.36 1.293v2.171c0 .224-.181.405-.405.405h-1.125l-.011.171-.045.267-.069.259-.096.248-.123.237-.149.224-.189.229h.016l-.197.176c-.464.408-1.061.635-1.68.635-.616 0-1.213-.227-1.68-.635l-.197-.176h.019l-.181-.219-.147-.219-.125-.237-.099-.251-.072-.256-.045-.261-.016-.192h-4.693l-.013.171-.043.267-.072.259-.096.248-.123.237-.149.224-.189.229h.019l-.197.176c-.467.408-1.064.635-1.68.635-.619 0-1.216-.227-1.68-.635l-.2-.176h.019l-.181-.219-.147-.219-.125-.237-.099-.251-.072-.256-.043-.261-.016-.192h-1.739c-.221 0-.405-.181-.405-.405v-3.059l.019-.088c.12-1.216 1.152-2.149 2.395-2.152h.637l.296-.741c.229-.656.677-1.227 1.261-1.608.448-.309.968-.523 1.507-.619v-.907c0-.221.184-.405.408-.405h3.363c.224 0 .405.184.405.405v.827c1.08.051 2.109.539 2.835 1.344l1.499 1.664.813.04c1.715.011 3.107 1.413 3.107 3.128zm-14.064-.059l.165-.008.043-.003.04.003.176.008.085.008.155.024.101.021.131.032.117.037.109.037.125.053.094.045.128.067.083.051.123.08.072.053.12.096.075.069.101.099.059.064.107.125.051.069.096.139.035.056.093.173.016.035.091.213.059.176h4.901c.056-.195.133-.381.235-.555l.173-.264.027-.035c.125-.163.275-.309.44-.44l.037-.027.232-.157.048-.029.283-.136.024-.011.269-.088.096-.027.131-.027.136-.019.104-.011.165-.008h.083l.173.008.088.008.155.024.101.021.131.032.117.035.107.04.128.053.093.045.125.067.085.051.12.08.083.061.109.088.077.069.101.099.067.075.096.115.043.053.107.155.027.045.101.184.016.035.091.213.059.176h.821v-1.765c0-.163-.019-.323-.053-.48h-.496c-1.027-.003-1.864-.824-1.896-1.84l-.875-.048c-.107-.005-.208-.053-.28-.133l-1.608-1.789c-.621-.688-1.507-1.083-2.432-1.083h-.035l-3.341.037c-.195.003-.384.024-.571.067-.387.077-.752.235-1.08.464-.448.288-.789.72-.96 1.221l-.405 1.013c-.064.155-.211.256-.379.256h-.909c-.659 0-1.256.416-1.491 1.021h1.013c.224 0 .405.184.405.405v1.224c0 .224-.181.405-.405.405h-1.123v1.024h1.432c.056-.195.136-.381.235-.555l.173-.264.027-.035c.125-.163.275-.309.44-.44l.037-.027.232-.157.048-.029.283-.136.024-.011.272-.088.093-.027.133-.027.133-.019.104-.011z" fill="#000"/><path d="M8.296 12.808h.571v-.803h.803v.803h.803v-.803h.803v.803h.803v-.803h.803v.803h.803v-.803h.805v.803h.803v-.803h.803v.803h.803l.216.512-.283.136-.048.029-.232.157-.037.027c-.165.131-.315.277-.44.44l-.027.035-.173.264c-.101.173-.179.36-.235.555h-4.901l-.059-.176-.091-.213-.016-.035-.093-.173-.035-.056-.096-.139-.051-.069-.107-.125-.059-.064-.101-.099-.075-.069-.12-.096-.072-.053-.123-.08-.083-.051-.128-.067-.093-.045-.125-.053-.109-.037-.117-.037-.131-.032-.101-.021-.155-.024-.085-.008-.176-.008-.04-.003v-.32z" fill="#FFF36F"/><path fill="#000" d="M7.261 12.005h.803v-.803h-.803z"/><path d="M6.56 15.675c0-.957.779-1.736 1.736-1.736.955 0 1.733.779 1.733 1.736 0 .955-.779 1.733-1.733 1.733-.957 0-1.733-.779-1.736-1.733m1.736 1.323c.728 0 1.323-.595 1.323-1.323 0-.731-.595-1.325-1.323-1.325-.731 0-1.325.595-1.325 1.325 0 .728.595 1.323 1.325 1.323" fill="#4D4E4C"/><path d="M6.728 13.669c-.165.131-.315.277-.44.44l-.027.035-.173.264c-.099.173-.179.36-.235.555h-1.432v-1.024h1.123c.224 0 .405-.181.405-.405v-1.224c0-.221-.181-.405-.405-.405h-1.013c.235-.605.832-1.021 1.491-1.021h.909c.168 0 .315-.101.379-.256l.405-1.013c.171-.501.512-.933.96-1.221.328-.229.693-.387 1.08-.464l.069.347c-.899.184-1.576.981-1.576 1.933v.269c0 .221.181.405.405.405h1.016v.32h-.803v.803h-.803v-.803h-.803v.803h.803v.803h.232v.32l-.043.003-.165.008-.104.011-.133.019-.133.027-.093.027-.272.088-.024.011-.283.136-.048.029-.232.157-.037.027z" fill="#FFF36F"/><path fill="#E36A5B" d="M4.421 13.128h.717v-.411h-.717z"/></g></g></svg>