<svg width="25" height="24" viewBox="0 0 25 24" xmlns="http://www.w3.org/2000/svg"><title>ico-pos-styliste</title><desc>Created with Sketch.</desc><g fill="none"><path d="M24.361 12.005c0 6.262-5.14 11.339-11.481 11.339s-11.481-5.077-11.481-11.339c0-6.262 5.14-11.339 11.481-11.339s11.481 5.077 11.481 11.339" stroke="#000" fill="#FED792"/><g><path d="M16.222 11.382c-.154-.152-.406-.152-.56 0l-.21-.207c.154-.152.155-.399 0-.553l-2.732-2.699 3.536-3.492.64.632-1.324 1.308c-.154.152-.154.401 0 .553.155.153.406.152.56 0l1.324-1.308.64.632-.994.981c-.154.152-.154.401 0 .553.155.154.406.152.56 0l.994-.982.641.633-1.324 1.308c-.154.152-.155.399 0 .553.154.152.406.152.56 0l1.324-1.308.64.632-3.536 3.492-.738-.729z" fill="#FFFFFE"/><path d="M8.075 16.696c.2.198.2.518 0 .716-.199.197-.523.197-.724-.001-.199-.196-.199-.517 0-.713.2-.198.525-.198.724-.001" fill="#000"/><path d="M7.352 17.411c.2.198.525.198.724.001.2-.198.2-.518 0-.716-.199-.196-.523-.196-.724.001-.199.196-.199.517 0 .713m.448.713c-.375.077-.671-.004-.879-.243l-.021-.021-.022-.022c-.242-.206-.325-.498-.246-.868.087-.398.377-.787.865-1.156.2-.153.644-.465 1.114-.794.613-.429 1.247-.872 1.512-1.084.624-.495.999-1.073 1.086-1.673.066-.452-.105-.864-.255-1.228-.088-.211-.172-.413-.193-.589-.038-.297.136-.723.403-.987l.022-.022.767.758c.155.154.406.152.56 0l.175.173c-.154.152-.155.4 0 .553l2.738 2.704-.022.022c-.267.264-.697.434-.999.398-.178-.021-.379-.104-.596-.191-.368-.148-.784-.318-1.243-.251-.606.087-1.191.458-1.694 1.073-.214.261-.663.887-1.097 1.493-.333.464-.648.903-.802 1.102-.375.481-.769.767-1.171.853" fill="#B79267"/><path d="M21.335 8.895l-5.372 5.306c-.37.365-1.026.698-1.657.622-.281-.034-.543-.141-.798-.243-.301-.123-.585-.238-.831-.202-.51.072-.928.469-1.19.788-.197.245-.661.887-1.067 1.454-.34.471-.658.915-.822 1.127-.491.632-1.043 1.016-1.634 1.141-.613.13-1.162-.014-1.557-.404l-.069-.073-.073-.066c-.395-.39-.54-.932-.409-1.537.125-.585.515-1.128 1.155-1.613.213-.163.662-.477 1.141-.812.574-.401 1.225-.858 1.471-1.055.325-.257.726-.671.799-1.174.036-.243-.08-.524-.204-.821-.104-.252-.211-.51-.246-.788-.078-.625.26-1.272.63-1.637l5.372-5.306c.154-.152.405-.153.56 0l2.399 2.37 2.401 2.371c.154.152.154.401 0 .553m-14.415 8.986c.209.239.504.321.879.243.403-.086.797-.372 1.171-.853.154-.199.469-.637.802-1.102.434-.606.883-1.232 1.097-1.493.503-.615 1.088-.986 1.694-1.073.459-.066.875.103 1.243.251.217.087.419.17.596.191.302.036.732-.134.999-.398l.022-.022-2.738-2.704c-.155-.153-.154-.401 0-.553.155-.153.405-.153.56 0l2.738 2.704.414-.409-.738-.729c-.154-.152-.155-.399 0-.553.154-.152.406-.152.56 0l.738.729 3.536-3.492-.64-.632-1.324 1.308c-.154.152-.406.152-.56 0-.155-.153-.154-.401 0-.553l1.324-1.308-.641-.633-.994.982c-.154.152-.405.153-.56 0-.154-.152-.154-.401 0-.553l.994-.982-.64-.632-1.324 1.308c-.154.152-.405.154-.56 0-.154-.152-.154-.401 0-.553l1.324-1.308-.64-.632-3.536 3.492 2.733 2.699c.155.154.154.401 0 .553-.155.153-.405.153-.56 0l-2.732-2.699-.414.409.767.758c.155.153.155.399 0 .553-.154.152-.405.154-.56 0l-.767-.758-.022.022c-.267.264-.441.69-.403.987.021.175.105.377.193.589.15.364.321.776.255 1.228-.087.6-.462 1.178-1.086 1.673-.265.211-.899.655-1.512 1.084-.47.329-.914.64-1.114.794-.489.369-.778.758-.865 1.156-.078.371.004.662.246.868l.022.022.021.021" fill="#000"/><path d="M12.16 8.476l2.732 2.699c.155.153.405.153.56 0l.21.207c-.155.154-.154.401 0 .553l.738.729-.414.409-2.738-2.704c-.155-.153-.405-.153-.56 0l-.175-.173c.155-.153.155-.399 0-.553l-.767-.758.414-.409z" fill="#CBCCCB"/></g></g></svg>