<svg width="25" height="24" viewBox="0 0 25 24" xmlns="http://www.w3.org/2000/svg"><title>ico-pos-revente_bois</title><desc>Created with Sketch.</desc><g fill="none"><path d="M23.824 12.269c0 6.193-5.021 11.214-11.214 11.214-6.193 0-11.214-5.021-11.214-11.214 0-6.193 5.02-11.214 11.214-11.214 6.193 0 11.214 5.021 11.214 11.214" stroke="#000" fill="#B48D6B"/><path d="M7.546 6.525l-.016.037.017.039 9.337 9.337.038.016.037-.016.255-.255-2.795-2.796c-.081-.081-.126-.188-.126-.302 0-.114.045-.221.126-.302.08-.08.188-.125.302-.125.114 0 .222.044.302.125l2.795 2.796.446-.446-.693-.693c-.167-.167-.167-.438 0-.604.081-.081.188-.125.302-.125.114 0 .222.044.303.125l.693.693.254-.254.001-.077-9.337-9.337-.039-.016-.039.016-.254.253 2.921 2.921c.08.08.125.187.125.301 0 .115-.044.222-.125.303-.08.08-.188.125-.302.125-.114 0-.222-.044-.303-.125l-2.921-2.921-.446.446 5.322 5.322c.167.167.167.438 0 .605-.08.08-.188.125-.302.125-.115 0-.222-.044-.303-.125l-5.322-5.322-.255.255zm.752 2.058l-.04.017-2.164 2.164-.016.038.015.037 9.337 9.337.04.016.037-.015 1.306-1.306-3.43-3.43c-.167-.167-.167-.438 0-.604.081-.081.189-.126.302-.126.114 0 .222.045.303.126l3.43 3.429.254-.253v-.078l-9.337-9.337-.037-.015zm7.172 12.464c-.243 0-.472-.095-.644-.267l-9.337-9.337c-.171-.171-.266-.399-.266-.642s.094-.471.266-.642l2.164-2.164.041-.038-.751-.751c-.172-.172-.267-.4-.267-.643s.094-.472.265-.643l2.164-2.164c.172-.172.401-.266.644-.266s.472.095.644.266l9.337 9.337c.354.354.354.931-.001 1.286l-2.164 2.164-.039.037.751.751c.172.172.266.4.266.644 0 .243-.095.472-.266.644l-2.164 2.164c-.171.171-.399.265-.642.265z" fill="#1A1919"/><path d="M6.243 10.802l2.055-2.055 7.889 7.889 1.338 1.338-.107.106-3.336-3.336c-.106-.106-.246-.164-.396-.164-.149 0-.29.058-.395.164-.218.218-.218.573 0 .791l3.336 3.336-1.157 1.157-9.227-9.227zm3.4-6.187l.107-.106 9.227 9.227-.106.107-.599-.599c-.106-.106-.246-.164-.396-.164-.149 0-.29.058-.395.164-.218.218-.218.573 0 .791l.599.599-.26.26-2.702-2.702c-.105-.105-.246-.164-.395-.164-.15 0-.29.058-.396.164-.218.218-.218.573 0 .791l2.702 2.702-.107.106-7.889-7.889-1.338-1.338.106-.107 5.229 5.229c.105.105.246.164.396.164.15 0 .29-.058.395-.164.105-.105.163-.246.163-.396 0-.15-.058-.29-.163-.395l-5.229-5.229.26-.26 2.828 2.828c.105.105.246.164.396.164.15 0 .29-.058.395-.164.106-.106.164-.247.164-.397 0-.149-.059-.289-.164-.394l-2.828-2.828zm.107-1.257c-.279 0-.54.108-.737.305l-2.164 2.164c-.196.196-.304.458-.304.736 0 .279.109.54.305.737l.657.657-2.11 2.11c-.196.196-.304.457-.304.736 0 .278.108.54.304.736l9.337 9.337c.197.197.459.305.738.305.278 0 .539-.108.735-.304l2.164-2.164c.406-.406.406-1.068 0-1.474l-.656-.656 2.109-2.109c.196-.197.305-.458.305-.737 0-.279-.108-.54-.304-.736l-9.337-9.337c-.197-.197-.458-.305-.737-.305zm5.721 16.967l.13-.054 1.399-1.399-3.523-3.523c-.116-.116-.116-.303 0-.418.058-.058.133-.087.209-.087.076 0 .151.029.209.087l3.523 3.523.347-.347c.073-.073.073-.193 0-.265l-1.392-1.392-7.945-7.945-.13-.054-.133.055-2.164 2.164c-.072.073-.072.19 0 .262l9.337 9.337.133.055zm-3.395-12.191c-.076 0-.152-.029-.209-.086l-3.014-3.014-.633.633 5.415 5.415c.114.114.114.304 0 .418-.058.058-.133.086-.209.086-.076 0-.152-.029-.209-.086l-5.415-5.415-.348.348c-.073.073-.073.19.001.263l1.392 1.392 7.945 7.945.131.054.131-.054.348-.348-2.889-2.889c-.116-.116-.116-.303 0-.418.057-.057.133-.086.209-.086.075 0 .151.028.209.086l2.889 2.889.633-.633-.786-.786c-.116-.116-.116-.303 0-.418.058-.058.133-.087.209-.087.076 0 .151.029.209.087l.786.786.347-.347c.072-.072.074-.191.001-.263l-9.337-9.337-.132-.055-.132.055-.347.347 3.014 3.014c.114.114.116.302 0 .418-.058.058-.133.086-.209.086zm-2.326-4.511c.199 0 .399.076.55.228l9.337 9.337c.303.302.303.796-.001 1.099l-2.164 2.164-.148.114.86.86c.304.304.304.797 0 1.101l-2.164 2.164c-.151.151-.349.227-.548.227-.199 0-.399-.076-.551-.228l-9.337-9.337c-.302-.303-.302-.796 0-1.098l2.164-2.164.149-.116-.86-.86c-.304-.304-.304-.797-.001-1.1l2.164-2.164c.152-.152.351-.228.55-.228z" fill="#1A1919"/><path d="M11.447 12.901c.116-.116.116-.303 0-.418l-1.962-1.962c-.116-.116-.302-.116-.418 0-.116.116-.116.303 0 .418l1.962 1.962c.116.116.302.116.418 0m-.042 2.06c.116-.116.116-.302 0-.418l-3.98-3.98c-.116-.116-.303-.116-.418 0-.116.116-.116.302 0 .418l3.98 3.98c.116.116.303.116.418 0m4.239 4.239c.116-.116.114-.304 0-.418l-2.009-2.01c-.116-.116-.303-.116-.418 0-.116.116-.116.303 0 .418l2.01 2.01c.114.114.302.116.418 0m-9.643-8.528l2.164-2.164c.072-.072.191-.074.263-.001l7.945 7.945 1.392 1.392c.072.073.072.192 0 .265l-.347.347-3.523-3.523c-.116-.116-.303-.116-.418 0-.116.116-.116.303 0 .418l3.523 3.523-1.399 1.399c-.073.073-.191.071-.263-.001l-9.337-9.337c-.073-.072-.073-.189 0-.262" fill="#9E754E"/><path d="M13.217 17.19l2.009 2.009c.114.114.303.116.418 0 .116-.116.114-.304 0-.418l-2.009-2.009c-.116-.116-.302-.116-.418 0-.116.116-.116.302 0 .418" fill="#1A1919"/><path d="M7.007 10.981l3.98 3.98c.116.116.303.116.418 0 .116-.116.116-.302 0-.418l-3.98-3.98c-.116-.116-.302-.116-.418 0-.116.116-.116.302 0 .418" fill="#1A1919"/><path d="M9.067 10.939l1.962 1.962c.116.116.302.116.418 0 .116-.116.116-.303 0-.418l-1.962-1.962c-.116-.116-.302-.116-.418 0-.116.116-.116.302 0 .418" fill="#1A1919"/><path d="M16.932 12.695c.116-.116.116-.303 0-.418l-3.078-3.078c-.114-.114-.302-.116-.418 0-.116.116-.114.304 0 .418l3.078 3.078c.116.116.302.116.418 0zm-9.477-5.999c-.074-.074-.074-.191-.001-.263l.348-.348 5.415 5.415c.114.114.303.116.418 0 .114-.114.114-.304 0-.418l-5.415-5.415.633-.633 3.014 3.014c.114.114.302.116.418 0 .116-.116.114-.304 0-.418l-3.014-3.014.347-.347c.072-.073.191-.074.265 0l9.337 9.337c.072.073.071.191-.002.263l-.347.347-.786-.786c-.116-.116-.303-.116-.418 0-.116.116-.116.302 0 .418l.786.786-.633.633-2.889-2.889c-.116-.116-.304-.114-.418 0-.116.116-.116.303 0 .418l2.889 2.889-.348.348c-.073.072-.19.072-.262 0l-7.944-7.945-1.392-1.392z" fill="#7D563A"/><path d="M13.435 9.616l3.078 3.078c.116.116.302.116.418 0 .116-.116.116-.303 0-.418l-3.078-3.078c-.114-.114-.302-.116-.418 0-.116.116-.114.304 0 .418" fill="#1A1919"/><path d="M20.086 8.926c-2.279 0-4.134-1.854-4.134-4.134 0-2.279 1.854-4.134 4.134-4.134 2.279 0 4.134 1.854 4.134 4.134 0 2.279-1.854 4.134-4.134 4.134" stroke="#000" fill="#1A1919"/><path d="M20.381 6.8v.669h-.643v-.623c-.44-.02-.866-.137-1.115-.282l.197-.767c.275.151.663.289 1.089.289.374 0 .63-.144.63-.407 0-.249-.21-.407-.695-.571-.702-.236-1.181-.564-1.181-1.2 0-.577.407-1.03 1.108-1.168v-.623h.643v.577c.44.02.735.112.951.217l-.19.741c-.17-.072-.472-.223-.944-.223-.426 0-.564.184-.564.367 0 .217.23.354.787.564.781.275 1.096.636 1.096 1.227 0 .584-.413 1.082-1.168 1.213m-.295-5.745c-2.065 0-3.738 1.674-3.738 3.738 0 2.065 1.673 3.738 3.738 3.738 2.064 0 3.738-1.674 3.738-3.738s-1.674-3.738-3.738-3.738" fill="#FFF36F"/></g></svg>