<svg width="24" height="24" viewBox="0 0 24 24" xmlns="http://www.w3.org/2000/svg"><title>ico-pos-poisson</title><desc>Created with Sketch.</desc><g fill="none"><path d="M23.077 12.005c0 6.262-5.077 11.339-11.339 11.339-6.262 0-11.338-5.077-11.338-11.339 0-6.262 5.076-11.339 11.338-11.339s11.339 5.077 11.339 11.339" fill="#B9E1ED"/><path d="M11.739 1.067c-6.031 0-10.939 4.907-10.939 10.939 0 6.031 4.907 10.939 10.939 10.939 6.031 0 10.939-4.907 10.939-10.939s-4.907-10.939-10.939-10.939m0 22.677c-6.473 0-11.739-5.266-11.739-11.739 0-6.473 5.266-11.739 11.739-11.739 6.473 0 11.739 5.266 11.739 11.739 0 6.473-5.266 11.739-11.739 11.739" fill="#1A1919"/><path d="M5.712 15.442c.259-.343.401-.759.395-1.169l-.009-.401c.006-.407-.135-.819-.395-1.163-.247-.325-.587-.548-.934-.635.106.292.298.66.569 1.015l.009.009c.443.572.443 1.377 0 1.955l-.003.009c-.268.355-.464.723-.569 1.015.349-.087.684-.31.937-.635m7.389-1.359c0-1.042.298-2.036.834-2.855-.301-.036-.605-.057-.916-.057-2.377 0-4.575 1.133-5.699 2.91 1.124 1.774 3.323 2.91 5.699 2.91.31 0 .615-.021.916-.057-.536-.819-.834-1.817-.834-2.85m5.618-.006c-.777-1.232-2.07-2.151-3.576-2.6-.584.681-.919 1.612-.919 2.6 0 .985.334 1.913.919 2.599 1.506-.452 2.798-1.37 3.576-2.599m1.139-.265c.09.166.09.367 0 .533-.615 1.115-1.57 2.054-2.765 2.717-1.217.678-2.624 1.036-4.079 1.036-1.452 0-2.859-.358-4.076-1.036-.759-.425-1.425-.961-1.964-1.578-.099.223-.223.437-.37.63-.551.714-1.338 1.121-2.142 1.121-.151 0-.295-.015-.443-.042-.226-.042-.401-.22-.446-.443l-.021-.295c.021-.578.365-1.368.898-2.063l.006-.009c.141-.181.141-.431 0-.611l-.006-.009c-.533-.696-.877-1.485-.898-2.061l.021-.298c.045-.223.22-.401.446-.443.949-.181 1.94.232 2.585 1.078.147.199.271.407.37.63.539-.621 1.205-1.154 1.964-1.578 1.217-.678 2.624-1.036 4.076-1.036 1.455 0 2.862.358 4.079 1.036 1.196.663 2.154 1.606 2.765 2.723" fill="#000206"/><path d="M17.43 14.077c0-.401-.325-.723-.726-.723-.401 0-.726.322-.726.723 0 .398.325.72.726.72.401 0 .726-.322.726-.72m-2.286-2.6c1.506.449 2.798 1.368 3.576 2.6-.777 1.229-2.07 2.148-3.576 2.6-.584-.687-.919-1.615-.919-2.6 0-.988.334-1.919.919-2.6" fill="#E4D780"/><path d="M16.704 13.354c.401 0 .726.322.726.723 0 .398-.325.72-.726.72-.401 0-.726-.322-.726-.72 0-.401.325-.723.726-.723" fill="#000206"/><path d="M13.936 11.227c-.536.819-.834 1.813-.834 2.856 0 1.033.298 2.03.834 2.85-.301.036-.606.057-.916.057-2.377 0-4.576-1.136-5.699-2.91 1.123-1.777 3.322-2.91 5.699-2.91.31 0 .614.021.916.057" fill="#EC9883"/><path d="M6.107 14.273c.006.41-.135.825-.395 1.169-.253.325-.587.548-.937.635.105-.292.301-.659.569-1.015l.003-.009c.443-.578.443-1.383 0-1.955l-.009-.009c-.271-.355-.464-.723-.569-1.015.346.087.687.31.934.635.259.343.401.756.395 1.163l.009.401" fill="#F4C4B1"/><path d="M19.06 5.912c-.205 0-.395.111-.494.292-.389.711-1.135 1.148-1.943 1.148-.813 0-1.557-.44-1.946-1.148-.096-.178-.286-.292-.494-.292-.205 0-.395.111-.494.292-.389.711-1.136 1.148-1.946 1.148s-1.554-.44-1.943-1.148c-.099-.178-.289-.292-.494-.292-.208 0-.398.111-.497.292-.386.711-1.133 1.148-1.943 1.148-.813 0-1.554-.44-1.943-1.148-.099-.178-.289-.292-.494-.292h-.001v1.504l.001-.001c.623.66 1.5 1.051 2.437 1.051.937 0 1.817-.389 2.44-1.051.623.66 1.503 1.051 2.437 1.051.937 0 1.816-.389 2.44-1.051.623.66 1.503 1.051 2.44 1.051s1.814-.389 2.437-1.051l.001.001v-1.504h-.001" fill="#000206"/></g></svg>