<svg width="24" height="24" viewBox="0 0 24 24" xmlns="http://www.w3.org/2000/svg"><title>ico-pos-peche</title><desc>Created with Sketch.</desc><g fill="none"><path d="M23.077 12.005c0 6.262-5.077 11.339-11.339 11.339-6.262 0-11.338-5.077-11.338-11.339 0-6.262 5.076-11.339 11.338-11.339s11.339 5.077 11.339 11.339" fill="#F7CEB9"/><path d="M11.739 1.067c-6.031 0-10.939 4.907-10.939 10.939 0 6.031 4.907 10.939 10.939 10.939s10.939-4.907 10.939-10.939-4.907-10.939-10.939-10.939m0 22.677c-6.473 0-11.739-5.266-11.739-11.739 0-6.473 5.266-11.739 11.739-11.739 6.473 0 11.739 5.266 11.739 11.739 0 6.473-5.266 11.739-11.739 11.739" fill="#1A1919"/><g><path d="M15.08 4.328l.013-.085-.088.013c-.32.043-.96.384-1.6 1.027-.739.733-.995 1.349-1.029 1.6l-.013.085.085-.013c.333-.043.957-.379 1.605-1.027.736-.736.992-1.352 1.027-1.6m4.619 8.552c0 2-.677 3.867-1.907 5.256-1.44 1.629-3.547 2.488-6.093 2.488-2.499 0-4.573-.827-6.005-2.389-1.235-1.355-1.915-3.173-1.915-5.123 0-3.195 1.92-6.427 5.592-6.427.747 0 1.437.091 2.056.264l.08.024v-2.253c0-.24.195-.432.435-.432.237 0 .432.192.432.432v.416l.115-.133.307-.331c.792-.792 1.664-1.285 2.277-1.285.323 0 .523.131.632.24.176.179.419.597.045 1.419-.221.483-.608 1.013-1.088 1.496l-.149.147.248-.003c3.243 0 4.939 3.117 4.939 6.195m-5.253 2.557c-.229-.053-.373-.285-.32-.515l.045-.237.088-.621.003-.032.037-.408.003-.024.019-.427.003-.059.003-.155v-.109c-.003-.611-.061-1.184-.173-1.707l-.064-.272-.005-.024-.075-.259-.011-.029-.077-.227-.008-.024.072-.053-.08.035-.053-.133-.045-.104-.024-.059-.101-.2-.037-.083-.067-.112-.088-.149-.091-.128-.085-.131-.059-.069-.085-.107-.053-.061-.112-.12-.109-.112-.104-.091-.072-.064-.067-.059-.067-.048-.112-.08-.088-.064-.088-.056-.12-.069-.085-.051-.128-.064-.133-.064-.059-.029c-.664-.288-1.472-.435-2.4-.435-3.104 0-4.728 2.797-4.728 5.563 0 1.733.6 3.347 1.691 4.539 1.261 1.381 3.115 2.109 5.365 2.109 2.291 0 4.173-.757 5.445-2.195 1.091-1.232 1.691-2.896 1.691-4.685 0-2.648-1.4-5.331-4.072-5.331-.536 0-1.064.048-1.571.144l-.141.027.117.088.269.227.016.016.035.035.027.027.173.168.125.144.101.117.109.141.096.133.067.099.016.024.099.157.077.131.088.163.067.136.064.136.013.029.045.104.011.029.045.115.04.104.035.091.032.101.067.208.075.28.024.109.051.232.075.456.024.171.016.149.013.144.011.107.003.048.008.163.008.12v.021l.005.152.003.251-.021.693-.019.243-.045.44-.147.891-.04.104-.029.048-.019.024-.029.035-.019.019-.061.045-.053.027-.024.011-.131.027-.008.003-.024-.003-.085-.013" fill="#1A1919"/><path d="M13.192 7.693c.507-.096 1.035-.144 1.571-.144 2.672 0 4.072 2.683 4.072 5.331 0 1.789-.6 3.453-1.691 4.685-1.272 1.437-3.155 2.195-5.445 2.195-2.251 0-4.104-.728-5.365-2.109-1.091-1.192-1.691-2.805-1.691-4.539 0-2.765 1.624-5.563 4.728-5.563.928 0 1.736.147 2.4.435l.059.029.133.064.128.064.085.051.12.069.088.056.088.064.112.08.067.048.067.059.072.064.104.091.109.112.112.12.053.061.085.107.059.069.085.131.091.128.088.149.067.112.037.083.101.2.024.059.045.104.053.133.08-.035-.072.053.008.024.077.227.011.029.075.259.005.024.064.272c.112.523.171 1.096.173 1.707v.109l-.003.155-.003.059-.019.427-.003.024-.037.408-.003.032-.088.621-.045.237c-.053.229.091.461.32.515l.085.013.024.003.008-.003.131-.027.024-.011.053-.027.061-.045.019-.019.029-.035.019-.024.029-.048.04-.104.147-.891.045-.44.019-.243.021-.693-.003-.251-.005-.152v-.021l-.008-.12-.008-.163-.003-.048-.011-.107-.013-.144-.016-.149-.024-.171-.075-.456-.051-.232-.024-.109-.075-.28-.067-.208-.032-.101-.035-.091-.04-.104-.045-.115-.011-.029-.045-.104-.013-.029-.064-.136-.067-.136-.088-.163-.077-.131-.099-.157-.016-.024-.067-.099-.096-.133-.109-.141-.101-.117-.125-.144-.173-.168-.027-.027-.035-.035-.016-.016-.269-.227-.117-.088.141-.027z" fill="#E36A5B"/><path d="M13.406 5.282c.64-.643 1.28-.984 1.6-1.027l.088-.013-.013.085c-.035.248-.291.864-1.027 1.6-.648.648-1.272.984-1.605 1.027l-.085.013.013-.085c.035-.251.291-.867 1.029-1.6" fill="#3D8A42"/></g></g></svg>