<svg width="25" height="25" viewBox="0 0 25 25" xmlns="http://www.w3.org/2000/svg"><title>ico-pos-atm</title><desc>Created with Sketch.</desc><g fill="none"><path d="M24.202 12.525c0 6.291-5.164 11.391-11.534 11.391-6.37 0-11.534-5.1-11.534-11.391s5.164-11.391 11.534-11.391c6.37 0 11.534 5.1 11.534 11.391" stroke="#000" fill="#93C781"/><g><path d="M16.877 15.026c0-1.699-.895-2.676-3.185-3.485l-.008-.003c-1.857-.699-2.741-1.2-2.741-2.154 0-.367.158-1.559 2.181-1.559 1.227 0 2.111.303 2.703.549l.399-1.554c-.723-.297-1.557-.463-2.542-.509-.214-.011-.383-.188-.383-.402v-1.417h-1.224v1.562c0 .193-.134.359-.324.394-1.985.391-3.169 1.618-3.169 3.287 0 1.57 1.031 2.588 3.448 3.402 1.479.498 2.465 1.061 2.465 2.178 0 1.039-.914 1.685-2.387 1.685-1.31 0-2.435-.388-3.167-.729l-.415 1.629c.79.378 1.953.646 3.062.694.217.011.386.188.386.402v1.562h1.222v-1.707c0-.196.142-.362.332-.397 2.066-.359 3.349-1.672 3.349-3.429m-.003-8.795c.171.083.263.276.214.461l-.6 2.336c-.029.113-.104.209-.212.26-.104.054-.225.056-.335.011l-.153-.067c-.555-.241-1.393-.603-2.666-.603-.514 0-1.377.096-1.377.755 0 .41.6.79 2.216 1.398 2.607.922 3.719 2.191 3.719 4.244 0 2.041-1.433 3.644-3.681 4.155v1.779c0 .222-.179.402-.402.402h-2.025c-.222 0-.402-.179-.402-.402v-1.589c-1.256-.104-2.5-.445-3.314-.916-.155-.091-.233-.273-.188-.447l.619-2.419c.032-.121.115-.22.23-.268.113-.051.244-.046.351.016.587.321 1.79.86 3.239.86.372 0 1.583-.064 1.583-.881 0-.461-.327-.879-1.918-1.417-1.859-.624-3.994-1.664-3.994-4.163 0-1.956 1.329-3.467 3.494-4.003v-1.642c0-.222.182-.402.402-.402h2.028c.22 0 .402.179.402.402v1.441c1.066.083 1.977.313 2.77.699" fill="#000"/><path d="M13.692 11.541c2.291.809 3.185 1.787 3.185 3.485 0 1.757-1.283 3.07-3.349 3.429-.19.035-.332.201-.332.397v1.707h-1.222v-1.562c0-.214-.169-.391-.386-.402-1.109-.048-2.272-.316-3.062-.694l.415-1.629c.731.34 1.857.729 3.167.729 1.473 0 2.387-.646 2.387-1.685 0-1.117-.986-1.68-2.465-2.178-2.417-.814-3.448-1.832-3.448-3.402 0-1.669 1.184-2.896 3.169-3.287.19-.035.324-.201.324-.394v-1.562h1.224v1.417c0 .214.169.391.383.402.986.046 1.819.212 2.542.509l-.399 1.554c-.592-.246-1.476-.549-2.703-.549-2.023 0-2.181 1.192-2.181 1.559 0 .954.884 1.455 2.741 2.154l.008.003" fill="#F1F7ED"/></g></g></svg>