<svg width="25" height="24" viewBox="0 0 25 24" xmlns="http://www.w3.org/2000/svg"><title>ico-pos-mine</title><desc>Created with Sketch.</desc><g fill="none"><path d="M24.077 12.005c0 6.262-5.077 11.339-11.339 11.339-6.262 0-11.338-5.077-11.338-11.339 0-6.262 5.076-11.339 11.338-11.339s11.339 5.077 11.339 11.339" stroke="#000" fill="#B4B4B4"/><g><path d="M13.542 8.198l1.001-1.001-.057-.04c-1.778-1.303-3.751-2.147-5.71-2.444l-.33-.05.293.162c1.623.889 3.223 2.013 4.761 3.337l.043.036zm-4.814 9.409l5.929-5.871-1.436-1.436-5.929 5.871c-.395.397-.395 1.041 0 1.436.183.183.445.287.718.287.276 0 .537-.105.718-.287zm8.819-7.918c.033-.033.033-.093 0-.126l-2.123-2.123-.067-.057-1.961 1.961c-.035.035-.035.095 0 .131l2.142 2.127.017.017h.024l.067-.026 1.902-1.904zm.777-2.042c0-.273-.105-.528-.297-.718-.19-.193-.445-.297-.718-.297-.271 0-.528.105-.718.297l-.34.338 1.436 1.436.34-.338c.193-.193.297-.447.297-.718zm1.963 8.859l-.052-.335c-.299-1.935-1.134-3.891-2.413-5.66l-.04-.057-.996.996.035.043c1.31 1.521 2.422 3.109 3.304 4.716l.162.297zm-2.03-6.613c1.923 2.577 2.917 5.527 2.803 8.305-.007.166-.126.304-.285.335-.166.026-.326-.057-.392-.207-.943-2.156-2.308-4.286-4.055-6.328l-.04-.047-.143.143c-.238.235-.606.307-.93.14l-.038-.019-5.947 5.893c-.323.323-.756.502-1.219.502-.461 0-.894-.178-1.217-.502-.67-.673-.67-1.766 0-2.436l5.957-5.902-.017-.038c-.135-.304-.071-.654.162-.887l.145-.145-.05-.041c-2.049-1.761-4.191-3.135-6.361-4.086-.152-.066-.238-.228-.207-.39.031-.164.169-.283.333-.287l.43-.01c2.689 0 5.503 1.01 7.93 2.848l.021.017.029-.007c.174-.043.359-.029.518.04l.038.014.371-.371c.323-.323.756-.502 1.217-.502.461 0 .894.178 1.217.502.673.673.673 1.764 0 2.437l-.359.359.021.038c.059.119.09.242.09.366l-.033.214-.007.029.019.024z" fill="#000"/><path d="M20.235 16.171l.052.335-.162-.297c-.882-1.607-1.994-3.195-3.304-4.716l-.035-.043.996-.996.04.057c1.279 1.769 2.113 3.725 2.413 5.66" fill="#FFFFFE"/><path d="M18.027 6.929c.193.19.297.445.297.718 0 .271-.105.525-.297.718l-.34.338-1.436-1.436.34-.338c.19-.193.447-.297.718-.297.273 0 .528.105.718.297" fill="#986343"/><path d="M17.547 9.563c.033.033.033.093 0 .126l-1.902 1.904-.067.026h-.024l-.017-.017-2.142-2.127c-.036-.036-.036-.095 0-.131l1.961-1.961.067.057 2.123 2.123z" fill="#9E9F9E"/><path d="M14.656 11.735l-5.929 5.871c-.181.183-.442.287-.718.287-.273 0-.535-.105-.718-.287-.394-.395-.394-1.039 0-1.436l5.929-5.871 1.436 1.436z" fill="#986343"/><path d="M14.542 7.197l-1.001 1.001-.043-.036c-1.538-1.324-3.138-2.448-4.761-3.337l-.292-.162.33.05c1.959.297 3.931 1.141 5.71 2.443l.057.041z" fill="#FFFFFE"/></g></g></svg>