<svg width="25" height="25" viewBox="0 0 25 25" xmlns="http://www.w3.org/2000/svg"><title>ico-pos-armurerie</title><desc>Created with Sketch.</desc><g fill="none"><path d="M24.202 12.525c0 6.291-5.164 11.391-11.534 11.391-6.37 0-11.534-5.1-11.534-11.391s5.164-11.391 11.534-11.391c6.37 0 11.534 5.1 11.534 11.391" stroke="#000" fill="#FED792"/><g><path d="M10.681 15.114l.048-2.545-3.392.565c.088.276.075.608.064.9l-.013.153-.137 5.184c.005.139.091.228.123.263.072.078.171.104.289.088l2.642-.461c.166-.027.281-.166.289-.34l.075-3.657.011-.15zm2.583-.713c.785-.137 1.369-.836 1.358-1.626l-.003-.758-1.776.308v.024c.019.538.163.817.212.897h.003l.019.032c.091.163.051.386-.091.506-.11.088-.255.121-.388.088-.121-.032-.214-.11-.263-.22-.198-.413-.303-.79-.324-1.149v-.035l-.453.078-.046 2.157 1.752-.303zm6.58-4.372c.126-.179.174-.394.137-.608l-.415-2.505-13.65 2.366-.003.667 9.854-1.712c.118-.019.228.008.319.072.088.064.147.161.169.271.019.115-.005.228-.07.321-.067.091-.163.15-.273.169l-9.998 1.733.043 1.733.04.078.019.011 6.253-1.045h.043l7.006-1.219c.214-.038.402-.155.528-.332zm.951-.75c.075.431-.024.868-.276 1.224-.252.359-.627.597-1.061.672l-4.008.697.011.889c.003 1.214-.855 2.245-2.039 2.449l-1.913.332-.072 3.381c-.008.549-.426 1.037-.975 1.133l-2.642.458-.214.019c-.284 0-.555-.096-.764-.281-.273-.236-.429-.573-.418-.927l.134-5.305c.011-.378-.003-.53-.013-.587l-.005-.032-.324.056c-.263.046-.528-.024-.747-.193-.212-.177-.335-.429-.348-.71l-.054-3.601c-.003-.204.139-.37.343-.405l14.397-2.497c.118-.021.217-.003.305.059.094.064.163.169.179.265l.504 2.901z" fill="#000"/><path d="M9.765 11.452c.196-.035.33-.22.295-.415-.032-.193-.222-.327-.415-.295l-2.36.394c-.094.016-.177.067-.233.145-.056.08-.078.174-.062.268.027.177.177.303.354.303l.059-.003 2.363-.397zm10.215-2.031c.038.214-.011.429-.137.608-.126.177-.313.295-.528.332l-7.006 1.219h-.043l-6.253 1.045-.019-.011-.04-.078-.043-1.733 9.998-1.733c.11-.019.206-.078.273-.169.064-.094.088-.206.07-.321-.021-.11-.08-.206-.169-.271-.091-.064-.201-.091-.319-.072l-9.854 1.712.003-.667 13.65-2.366.415 2.505z" fill="#CBCCCB"/><path d="M10.73 12.569l-.048 2.545-.011.15-.075 3.657c-.008.174-.123.313-.289.34l-2.642.461c-.118.016-.217-.011-.289-.088-.032-.035-.118-.123-.123-.263l.137-5.184.013-.153c.011-.292.024-.624-.064-.9l3.392-.565z" fill="#4D4E4C"/><path d="M10.06 11.037c.035.196-.099.38-.295.415l-2.363.397-.059.003c-.177 0-.327-.126-.354-.303-.016-.094.005-.188.062-.268.056-.078.139-.129.233-.145l2.36-.394c.193-.032.383.102.415.295" fill="#000"/></g></g></svg>