<svg width="24" height="24" viewBox="0 0 24 24" xmlns="http://www.w3.org/2000/svg"><title>ico-pos-station_essence</title><desc>Created with Sketch.</desc><g fill="none"><path d="M23.361 12.005c0 6.262-5.14 11.339-11.481 11.339s-11.481-5.077-11.481-11.339c0-6.262 5.14-11.339 11.481-11.339s11.481 5.077 11.481 11.339" fill="#FAD6A1"/><path d="M11.88 1.066c-6.11 0-11.081 4.907-11.081 10.939 0 6.031 4.971 10.938 11.081 10.938 6.11 0 11.081-4.907 11.081-10.938 0-6.032-4.971-10.939-11.081-10.939m0 22.677c-6.551 0-11.881-5.266-11.881-11.738 0-6.473 5.33-11.739 11.881-11.739s11.881 5.266 11.881 11.739c0 6.473-5.33 11.738-11.881 11.738" fill="#1A1919"/><g><path d="M7.43 12.126h6.736v-5.656h-6.736v5.656zm0 5.413h6.736v-4.571h-6.736v4.571zm11.491-11.912c.232 0 .421.189.421.421 0 .232-.189.421-.421.421-.963 0-1.744.784-1.744 1.744v6.541c0 .232-.189.421-.424.421h-1.744v2.363h1.744c.235 0 .424.189.424.421 0 .232-.189.421-.424.421h-11.909c-.235 0-.421-.189-.421-.421 0-.232.187-.421.421-.421h1.744v-11.491c0-.232.189-.421.421-.421h7.579c.232 0 .421.189.421.421v8.285h1.323v-6.12c0-1.427 1.163-2.587 2.589-2.587z" fill="#1A1919"/><path fill="#AB2430" d="M7.43 17.539h6.736v-4.571h-6.736z"/><path d="M12.843 10.379v-2.165c0-.232-.189-.421-.421-.421h-3.248c-.232 0-.421.189-.421.421v2.165c0 .235.189.421.421.421h3.248c.232 0 .421-.187.421-.421zm-5.413 1.747h6.736v-5.656h-6.736v5.656z" fill="#B4B5B4"/><path d="M9.595 9.958h2.405v-1.323h-2.405v1.323zm3.248-1.744v2.165c0 .235-.189.421-.421.421h-3.248c-.232 0-.421-.187-.421-.421v-2.165c0-.232.189-.421.421-.421h3.248c.232 0 .421.189.421.421z" fill="#1A1919"/><path fill="#FFFFFE" d="M9.595 9.958h2.405v-1.323h-2.405z"/></g></g></svg>