<svg width="24" height="24" viewBox="0 0 24 24" xmlns="http://www.w3.org/2000/svg"><title>ico-pos-cardealer</title><desc>Created with Sketch.</desc><g fill="none"><path d="M22.898 11.909c0 6.012-4.873 10.885-10.885 10.885s-10.885-4.873-10.885-10.885 4.873-10.885 10.885-10.885 10.885 4.873 10.885 10.885" stroke="#000" fill="#FED792"/><path d="M19.27 8.665c-2.212 0-4.012-1.8-4.012-4.012 0-2.212 1.8-4.012 4.012-4.012 2.213 0 4.013 1.8 4.013 4.012 0 2.212-1.8 4.012-4.013 4.012" fill="#000"/><path d="M19.27.256c-2.424 0-4.396 1.972-4.396 4.396s1.972 4.396 4.396 4.396 4.396-1.972 4.396-4.396-1.972-4.396-4.396-4.396m0 .768c2.004 0 3.628 1.625 3.628 3.628 0 2.004-1.624 3.628-3.628 3.628s-3.628-1.624-3.628-3.628 1.624-3.628 3.628-3.628" fill="#000"/><path d="M19.556 6.601v.649h-.624v-.605c-.427-.019-.84-.133-1.082-.274l.191-.745c.267.147.643.28 1.057.28.363 0 .611-.14.611-.395 0-.242-.204-.395-.675-.554-.681-.229-1.146-.548-1.146-1.165 0-.56.395-1 1.076-1.133v-.605h.624v.56c.427.019.713.108.923.21l-.185.719c-.165-.07-.458-.217-.917-.217-.414 0-.548.178-.548.357 0 .21.223.344.764.548.758.267 1.063.617 1.063 1.191 0 .567-.401 1.05-1.133 1.178m-.286-5.577c-2.004 0-3.628 1.625-3.628 3.628 0 2.004 1.624 3.629 3.628 3.629s3.628-1.625 3.628-3.629-1.625-3.628-3.628-3.628" fill="#FFF36F"/><path d="M7.344 17.973v-.515c-.346-.067-.632-.143-.873-.238l-.044-.015v.768h.916zm10.25 0v-.768l-.041.015c-.241.095-.527.172-.873.238v.515h.914zm-.957-6.154l-.087-.123-.881-1.917c-2.455-.637-4.582-.637-7.314.003l-.878 1.915-.087.123-.125.084-.148.033-.151-.023c-.192-.069-.602-.21-.719-.202l-.033.005c-.026.028-.082.1-.125.307l-.023.079-.003.003.174.141c.187.11.425.177.428.177l.164.087.113.151.031.184-.054.179c-.09.156-.251.558-.371.886l-.197.558.008.259.01.379c.008.428.015.868.056 1.139l.038.046c.061.051.177.113.305.161.3.115.753.215 1.311.292 1.239.164 2.824.195 3.935.187 1.114.005 2.698-.023 3.937-.187.558-.077 1.011-.177 1.308-.292.131-.049.246-.11.307-.161l.041-.041c.038-.279.046-.73.056-1.165l.005-.358.01-.259-.197-.558c-.12-.328-.282-.73-.371-.886l-.054-.179.031-.184.11-.151.166-.087s.241-.067.428-.177l.174-.141v-.003l-.026-.079c-.044-.207-.1-.279-.11-.292l-.049-.02c-.12-.005-.525.133-.719.202l-.151.023-.146-.033-.125-.084zm1.848 3.213c-.005.445-.013.952-.069 1.331l.003 2.022-.033.156-.087.133-.133.09-.159.031h-1.738l-.156-.031-.133-.09-.09-.133-.033-.156v-.801c-1.004.12-2.296.179-3.843.169-1.549.013-2.842-.049-3.848-.169v.801l-.031.156-.09.133-.133.09-.156.031h-1.738l-.159-.031-.133-.09-.09-.133-.031-.156v-2.038c-.054-.358-.061-.858-.067-1.298l-.015-.617.02-.154s.097-.3.228-.65l.223-.579-.174-.095c-.143-.082-.323-.205-.453-.407-.136-.212-.164-.492-.077-.732.059-.269.151-.474.294-.632.148-.169.366-.274.596-.292.259-.02.489.041.704.115l.801-1.748.105-.138.154-.084h.003c3.092-.842 5.161-.66 8.125-.003l.159.087.105.138.801 1.748c.215-.074.448-.136.704-.115.23.018.448.123.599.292.141.159.236.364.297.648.082.225.054.504-.082.717-.131.205-.312.325-.453.407l-.174.092.223.581c.131.351.228.653.228.653l.02.148-.015.602z" fill="#000"/><path d="M17.595 17.205v.768h-.914v-.515c.346-.067.632-.143.873-.238l.041-.015" fill="#4D4E4C"/><path d="M16.23 14.707c0-.182-.143-.325-.325-.325-.179 0-.323.143-.323.325 0 .184.143.328.323.328.184 0 .325-.141.325-.328m.822 0c0 .635-.515 1.149-1.147 1.149s-1.144-.515-1.144-1.149l.023-.23c.108-.522.568-.916 1.121-.916.632 0 1.147.515 1.147 1.147" fill="#000"/><path d="M15.905 14.382c.182 0 .325.143.325.325 0 .187-.141.328-.325.328-.179 0-.323-.143-.323-.328 0-.182.143-.325.323-.325" fill="#F2F1F0"/><path d="M13.647 15.127c.238.005.42.192.417.417-.005.225-.189.407-.412.407h-3.274c-.12-.003-.223-.046-.3-.125-.077-.079-.118-.182-.115-.292 0-.11.046-.212.123-.289.079-.077.187-.123.294-.118h3.267z" fill="#000"/><path d="M13.647 13.831c.238.003.42.189.417.417l-.036.159c-.064.146-.21.246-.376.246h-3.274c-.12 0-.223-.046-.3-.123l-.084-.131-.031-.164c.003-.225.187-.404.412-.404h3.272z" fill="#000"/><path d="M15.905 15.856c.632 0 1.147-.515 1.147-1.149l.614.02-.005.358c-.01.435-.018.886-.056 1.165l-.041.041c-.061.051-.177.113-.307.161-.297.115-.75.215-1.308.292-1.239.164-2.824.192-3.937.187-1.111.008-2.696-.023-3.935-.187-.558-.077-1.011-.177-1.311-.292-.128-.049-.243-.11-.305-.161l-.038-.046c-.041-.271-.049-.712-.056-1.139l-.01-.379.617-.02c0 .635.515 1.149 1.147 1.149s1.147-.515 1.147-1.149l-.023-.23.75-.077.084.131c.077.077.179.123.3.123h3.274c.166 0 .312-.1.376-.246l.755.069-.023.23c0 .635.512 1.149 1.144 1.149m-1.841-.312c.003-.225-.179-.412-.417-.417h-3.267c-.108-.005-.215.041-.294.118-.077.077-.123.179-.123.289-.003.11.038.212.115.292.077.079.179.123.3.125h3.274c.223 0 .407-.182.412-.407" fill="#9E9F9E"/><path d="M8.443 14.707c0-.182-.141-.325-.323-.325-.184 0-.325.141-.325.325 0 .187.141.328.325.328.182 0 .323-.143.323-.328m.801-.23l.023.23c0 .635-.515 1.149-1.147 1.149s-1.147-.515-1.147-1.149c0-.632.515-1.147 1.147-1.147.553 0 1.016.394 1.124.916" fill="#000"/><path d="M8.12 14.382c.182 0 .323.143.323.325 0 .184-.141.328-.323.328-.184 0-.325-.141-.325-.328 0-.184.141-.325.325-.325" fill="#F2F1F0"/><path d="M7.344 17.459v.515h-.916v-.768l.044.015c.241.095.527.172.873.238" fill="#4D4E4C"/><path d="M16.908 11.937l.151-.023c.195-.069.599-.207.719-.202l.049.02c.01.013.067.084.11.292l.026.079v.003l-.174.141c-.187.11-.428.177-.428.177l-.166.087-.11.151-.031.184.054.179c.09.156.251.558.371.886l.197.558-.01.259-.614-.02c0-.632-.515-1.147-1.147-1.147-.553 0-1.014.394-1.121.916l-.755-.069.036-.159c.003-.228-.179-.415-.417-.417h-3.272c-.225 0-.41.179-.412.404l.031.164-.75.077c-.108-.522-.571-.916-1.124-.916-.632 0-1.147.515-1.147 1.147l-.617.02-.008-.259.197-.558c.12-.328.282-.73.371-.886l.054-.179-.031-.184-.113-.151-.164-.087c-.003 0-.241-.067-.428-.177l-.174-.141.003-.003.023-.079c.044-.207.1-.279.125-.307l.033-.005c.118-.008.527.133.719.202l.151.023.148-.033.125-.084.087-.123.878-1.915c2.732-.64 4.859-.64 7.314-.003l.881 1.917.087.123.125.084.146.033" fill="#CBCCCB"/></g></svg>