<svg width="25" height="25" viewBox="0 0 25 25" xmlns="http://www.w3.org/2000/svg"><title>ico-pos-quincallerie</title><desc>Created with Sketch.</desc><g fill="none"><path d="M24.202 12.525c0 6.291-5.164 11.391-11.534 11.391-6.37 0-11.534-5.1-11.534-11.391s5.164-11.391 11.534-11.391c6.37 0 11.534 5.1 11.534 11.391" stroke="#000" fill="#FED792"/><g><path d="M7.651 8.728l1.214-2.031h-.924c-.204.005-.397.107-.514.273l-1.431 2.036v.664c0 .45.364.814.814.814.447 0 .812-.364.812-.814v-.943h.029zm3.097.123l.646-2.154h-1.664l-1.42 2.358v.938c0 .672.547 1.219 1.216 1.219.672 0 1.219-.547 1.219-1.219l.003-1.141zm3.137 1.141v-.991l-.699-2.304h-1.002l-.699 2.304v.991c0 .332.134.632.351.849.22.217.52.351.849.351.662 0 1.2-.538 1.2-1.2zm.49 8.361v-3.413c0-.356-.289-.643-.643-.643h-2.127c-.356 0-.646.287-.646.643v3.413h3.416zm2.652-8.361v-.954l-1.171-2.342-1.881.016.648 2.165v1.114c0 .332.134.632.351.849.22.217.52.351.849.351.321 0 .624-.123.849-.351.228-.228.354-.528.354-.849zm1.299 7.381v-6.103c-.295-.051-.565-.182-.785-.38-.15.287-.367.533-.635.715-.429.289-.943.399-1.452.3-.496-.094-.924-.37-1.216-.777-.129.179-.287.332-.469.458-.868.597-2.058.391-2.671-.458-.188.263-.439.474-.729.616-.948.461-2.095.078-2.575-.855-.222.198-.493.33-.788.38v6.103c0 .541.442.981.983.981h2.232v-3.413c0-.764.619-1.382 1.382-1.382h2.127c.761 0 1.382.619 1.382 1.382v3.413h2.232c.541 0 .981-.439.981-.981zm1.064-7.633v-.686l-1.195-2.036c-.115-.198-.327-.321-.557-.321h-.967l1.096 2.114v.93c0 .447.364.812.812.812.447 0 .812-.364.812-.812zm.739-.938v.938c-.005.664-.434 1.248-1.064 1.457v6.175c0 .948-.772 1.72-1.72 1.72h-9.355c-.948 0-1.72-.772-1.72-1.72v-6.175c-.632-.209-1.058-.793-1.064-1.457v-.86h.032v-.118l.019-.003v-.011l.005-.008 1.535-2.194c.26-.37.683-.589 1.133-.589h9.700999999999999c.49.003.948.268 1.192.691l1.305 2.154z" fill="#000"/><path d="M19.391 9.055v.686c0 .447-.364.812-.812.812-.447 0-.812-.364-.812-.812v-.93l-1.096-2.114h.967c.23 0 .442.123.557.321l1.195 2.036z" fill="#DC3E38"/><path d="M18.327 11.27v6.103c0 .541-.439.981-.981.981h-2.232v-3.413c0-.764-.622-1.382-1.382-1.382h-2.127c-.764 0-1.382.619-1.382 1.382v3.413h-2.232c-.541 0-.983-.439-.983-.981v-6.103c.295-.051.565-.182.788-.38.48.932 1.626 1.315 2.575.855.289-.142.541-.354.729-.616.614.849 1.803 1.056 2.671.458.182-.126.34-.279.469-.458.292.407.721.683 1.216.777.509.099 1.023-.011 1.452-.3.268-.182.485-.429.635-.715.22.198.49.33.785.38" fill="#CBCCCB"/><path d="M17.028 9.038v.954c0 .321-.126.622-.354.849-.225.228-.528.351-.849.351-.33 0-.63-.134-.849-.351-.217-.217-.351-.517-.351-.849v-1.114l-.648-2.165 1.881-.016 1.171 2.342z" fill="#FFFFFE"/><path d="M14.375 14.94v3.413h-3.416v-3.413c0-.356.289-.643.646-.643h2.127c.354 0 .643.287.643.643" fill="#777776"/><path d="M13.885 9.001v.991c0 .662-.538 1.2-1.2 1.2-.33 0-.63-.134-.849-.351-.217-.217-.351-.517-.351-.849v-.991l.699-2.304h1.002l.699 2.304z" fill="#DC3E38"/><path d="M11.393 6.697l-.646 2.154-.003 1.141c0 .672-.547 1.219-1.219 1.219-.67 0-1.216-.547-1.216-1.219v-.938l1.42-2.358h1.664z" fill="#FFFFFE"/><path d="M8.864 6.697l-1.214 2.031h-.029v.943c0 .45-.364.814-.812.814-.45 0-.814-.364-.814-.814v-.664l1.431-2.036c.118-.166.311-.268.514-.273h.924z" fill="#DC3E38"/></g></g></svg>