<svg width="25" height="24" viewBox="0 0 25 24" xmlns="http://www.w3.org/2000/svg"><title>ico-pos-magasin</title><desc>Created with Sketch.</desc><g fill="none"><path d="M24.361 12.005c0 6.262-5.14 11.339-11.481 11.339s-11.481-5.077-11.481-11.339c0-6.262 5.14-11.339 11.481-11.339s11.481 5.077 11.481 11.339" stroke="#000" fill="#FED792"/><g><path d="M14.701 5.733h-3.64c.211.803.945 1.395 1.82 1.395.875 0 1.609-.592 1.82-1.395zm-5.819 8.131h7.995v-.931h-7.995v.931zm0 4.413h7.995v-3.485h-7.995v3.485zm10.347-8.827v-2.875l-3.583-.744c-.265 1.267-1.404 2.224-2.765 2.224-1.364 0-2.503-.957-2.765-2.224l-3.586.744v2.875h1.882c.259 0 .47.208.47.464v2.091h7.995v-2.091c0-.256.213-.464.473-.464h1.879zm.942-3.251v3.715c0 .256-.211.464-.47.464h-1.882v8.363c0 .256-.211.464-.47.464h-8.937c-.259 0-.47-.208-.47-.464v-8.363h-1.882c-.259 0-.47-.208-.47-.464v-3.715c0-.221.157-.411.373-.456l4.469-.928.097-.011h4.703l.097.011 4.469.928c.216.045.373.235.373.456z" fill="#000"/><path d="M19.229 6.575v2.875h-1.879c-.259 0-.473.208-.473.464v2.091h-7.995v-2.091c0-.256-.21-.464-.47-.464h-1.882v-2.875l3.586-.744c.262 1.267 1.401 2.224 2.765 2.224 1.361 0 2.5-.957 2.765-2.224l3.583.744z" fill="#FFFFFE"/><path fill="#FFFFFE" d="M8.882 18.277h7.995v-3.485h-7.995z"/><path fill="#FFF36F" d="M8.882 13.863h7.995v-.931h-7.995z"/><path d="M11.061 5.733h3.64c-.211.803-.945 1.395-1.82 1.395-.875 0-1.609-.592-1.82-1.395" fill="#4D4E4C"/></g></g></svg>