<svg width="25" height="24" viewBox="0 0 25 24" xmlns="http://www.w3.org/2000/svg"><title>ico-pos-prefecture</title><desc>Created with Sketch.</desc><g fill="none"><path d="M24.361 12.005c0 6.262-5.14 11.339-11.481 11.339s-11.481-5.077-11.481-11.339c0-6.262 5.14-11.339 11.481-11.339s11.481 5.077 11.481 11.339" stroke="#000" fill="#FED792"/><g><path d="M18.454 12.377h-11.147v6.4479999999999995h-.829c-.189 0-.392-.152-.392-.392 0-.189.149-.392.392-.392h.016v-5.664h-.016c-.189 0-.392-.149-.392-.392 0-.189.149-.392.392-.392h2.563c.187-1.821 1.611-3.245 3.432-3.432v-3.701c0-.189.152-.392.392-.392.189 0 .392.149.392.392v.021c.381.147.811.027 1.328-.147.709-.256 1.467-.467 2.216.043.109.072.189.219.189.344v2.189c0 .141-.067.264-.189.344l-.032.016c-.16.037-.299.024-.4-.043-.464-.328-.976-.149-1.515.04l-.088.024c-.512.155-1 .301-1.509.187v.683c1.824.187 3.245 1.611 3.435 3.432h2.563c.189 0 .392.149.392.392 0 .189-.149.392-.392.392h-.016v5.664h-.784v-5.664zm-2.275-6.093v-1.325c-.379-.168-.821-.019-1.288.136l-.224.067c-.451.131-.915.264-1.411.157v1.32c.381.149.811.027 1.328-.144l.184-.053c.451-.131.915-.264 1.411-.157zm-.304 5.309c-.192-1.523-1.467-2.659-3.011-2.659-1.541 0-2.816 1.136-3.008 2.659h6.019z" fill="#000"/><path d="M12.865 8.934c1.544 0 2.819 1.136 3.011 2.659h-6.019c.192-1.523 1.467-2.659 3.008-2.659" fill="#CBCBCB"/><path fill="#777776" d="M9.641 18.041h1.579v-2.717h-1.579z"/><path d="M14.513 18.041h1.579v-2.717h-1.579v2.717zm-.829-3.501h3.208c.2 0 .392.189.392.392 0 .189-.149.392-.392.392h-.016v2.717h2.379c.224 0 .421.181.421.392 0 .187-.149.392-.392.392h-7.251v-.755h1.667v-2.747h-.016c-.203 0-.392-.192-.392-.392 0-.189.149-.392.392-.392z" fill="#000"/><path d="M12.049 14.539c.203 0 .392.189.392.392 0 .189-.149.392-.392.392h-.016v3.502h-4.725v-.755h1.549v-2.747h-.016c-.203 0-.392-.192-.392-.392 0-.189.149-.392.392-.392h3.208zm-2.408 3.501h1.579v-2.717h-1.579v2.717z" fill="#000"/><path d="M16.892 14.539h-3.208c-.243 0-.392.203-.392.392 0 .2.189.392.392.392h.016v2.747h-1.667v-2.747h.016c.243 0 .392-.203.392-.392 0-.203-.189-.392-.392-.392h-3.208c-.243 0-.392.203-.392.392 0 .2.189.392.392.392h.016v2.747h-1.549v-5.693h11.147v5.664h-1.579v-2.717h.016c.243 0 .392-.203.392-.392 0-.203-.192-.392-.392-.392" fill="#FFFFFE"/><path fill="#777776" d="M14.513 18.041h1.579v-2.717h-1.579z"/><path d="M16.18 4.958v1.325c-.496-.107-.96.027-1.411.157l-.184.053c-.517.171-.947.293-1.328.144v-1.32c.496.107.96-.027 1.411-.157l.224-.067c.467-.155.909-.304 1.288-.136" fill="#FE713A"/></g></g></svg>