<svg width="25" height="24" viewBox="0 0 25 24" xmlns="http://www.w3.org/2000/svg"><title>ico-pos-acierie</title><desc>Created with Sketch.</desc><g fill="none"><path d="M24.077 12.005c0 6.262-5.077 11.339-11.339 11.339-6.262 0-11.338-5.077-11.338-11.339 0-6.262 5.076-11.339 11.338-11.339s11.339 5.077 11.339 11.339" stroke="#000" fill="#B4B4B4"/><g><path d="M17.367 16.8v-9.28c-.024-.816-.779-1.403-1.227-1.683-.899-.557-2.107-.867-3.4-.867-1.296 0-2.504.309-3.403.867-.448.28-1.205.867-1.227 1.683l-.003.035v9.368l2.168 2.115h4.853l2.237-2.237zm.901-9.304v9.677l-2.763 2.765h-5.595l-2.701-2.637v-9.805c.027-.949.653-1.803 1.653-2.424.997-.619 2.365-1 3.877-1 3.019 0 5.472 1.528 5.525 3.424h.003z" fill="#000"/><path d="M16.225 14.512v-5.013h-6.976v5.013h6.976000000000001zm1.141-6.96v9.248l-2.237 2.237h-4.853l-2.168-2.115v-9.368l.003-.035c.021-.816.779-1.403 1.227-1.683.899-.557 2.107-.867 3.403-.867 1.293 0 2.501.309 3.4.867.448.28 1.203.867 1.227 1.683v.032z" fill="#4D4E4C"/><path fill="#000" d="M16.225 9.498v5.013h-4.4l2.888-2.976h-1.256l1.016-2.037z"/><path fill="#FFFFFE" d="M14.713 11.536l-2.888 2.976h-.704l1.093-2.184h-1.259l1.413-2.829h2.104l-1.016 2.037z"/><path fill="#000" d="M12.369 9.498l-1.413 2.829h1.259l-1.093 2.184h-1.872v-5.013z"/></g></g></svg>