<svg width="25" height="25" viewBox="0 0 25 25" xmlns="http://www.w3.org/2000/svg"><title>ico-pos-garage</title><desc>Created with Sketch.</desc><g fill="none"><path d="M24.202 12.525c0 6.291-5.164 11.391-11.534 11.391-6.37 0-11.534-5.1-11.534-11.391s5.164-11.391 11.534-11.391c6.37 0 11.534 5.1 11.534 11.391" stroke="#000" fill="#FED792"/><g><path d="M19.554 8.12c.22.121.3.397.179.616-.08.15-.238.236-.399.236-.072 0-.147-.016-.217-.054l-6.449-3.523-6.451 3.523c-.22.121-.496.038-.616-.182-.121-.22-.038-.496.182-.616l6.668-3.641c.134-.072.297-.072.434 0l6.668 3.641z" fill="#000"/><path d="M7.782 18.997v-.538c-.362-.07-.662-.15-.914-.249l-.046-.016v.804h.959zm10.727 0v-.804l-.043.016c-.252.099-.552.179-.914.249v.538h.956zm.386-6.14v-.003l-.027-.083c-.046-.217-.104-.292-.115-.305l-.051-.021c-.126-.005-.549.139-.753.212l-.158.024-.153-.035-.131-.088-.091-.129-.922-2.007c-2.569-.667-4.796-.667-7.654.003l-.919 2.004-.091.129-.131.088-.155.035-.158-.024c-.201-.072-.63-.22-.753-.212l-.035.005c-.027.029-.086.104-.131.321l-.024.083-.003.003.182.147c.196.115.445.185.447.185l.171.091.118.158.032.193-.056.188c-.094.163-.263.584-.388.927l-.206.584.008.271.011.397c.008.447.016.908.059 1.192l.04.048c.064.054.185.118.319.169.313.121.788.225 1.372.305 1.297.171 2.955.204 4.118.196 1.165.005 2.824-.024 4.12-.196.584-.08 1.058-.185 1.369-.305.137-.051.257-.115.321-.169l.043-.043c.04-.292.048-.764.059-1.219l.005-.375.011-.271-.206-.584c-.126-.343-.295-.764-.388-.927l-.056-.188.032-.193.115-.158.174-.091s.252-.07.447-.185l.182-.147zm.812-.287c.086.236.056.528-.086.75-.137.214-.327.34-.474.426l-.182.096.233.608c.137.367.238.683.238.683l.021.155-.016.63c-.005.466-.013.997-.072 1.393l.003 2.116-.035.163-.091.139-.139.094-.166.032h-1.819l-.163-.032-.139-.094-.094-.139-.035-.163v-.839c-1.05.126-2.403.188-4.021.177-1.621.013-2.974-.051-4.027-.177v.839l-.032.163-.094.139-.139.094-.163.032h-1.819l-.166-.032-.139-.094-.094-.139-.032-.163v-2.133c-.056-.375-.064-.897-.07-1.358l-.016-.646.021-.161s.102-.313.238-.68l.233-.605-.182-.099c-.15-.086-.338-.214-.474-.426-.142-.222-.171-.514-.08-.766.062-.281.158-.496.308-.662.155-.177.383-.287.624-.305.271-.021.512.043.737.121l.839-1.83.11-.145.161-.088h.003c3.236-.881 5.401-.691 8.503-.003l.166.091.11.145.839 1.83c.225-.078.469-.142.737-.121.241.019.469.129.627.305.147.166.246.38.311.678z" fill="#000"/><path d="M18.895 12.854v.003l-.182.147c-.196.115-.447.185-.447.185l-.174.091-.115.158-.032.193.056.188c.094.163.263.584.388.927l.206.584-.011.271-.643-.021c0-.662-.538-1.2-1.2-1.2-.579 0-1.061.413-1.173.959l-.79-.072.038-.166c.003-.238-.188-.434-.437-.437h-3.423c-.236 0-.429.188-.431.423l.032.171-.785.08c-.113-.547-.597-.959-1.176-.959-.662 0-1.2.538-1.2 1.2l-.646.021-.008-.271.206-.584c.126-.343.295-.764.388-.927l.056-.188-.032-.193-.118-.158-.171-.091c-.003 0-.252-.07-.447-.185l-.182-.147.003-.003.024-.083c.046-.217.104-.292.131-.321l.035-.005c.123-.008.552.139.753.212l.158.024.155-.035.131-.088.091-.129.919-2.004c2.859-.67 5.085-.67 7.654-.003l.922 2.007.091.129.131.088.153.035.158-.024c.204-.072.627-.217.753-.212l.051.021c.011.013.07.088.115.305l.027.083" fill="#CBCCCB"/><path d="M14.815 16.455c.003-.236-.188-.431-.437-.437h-3.418c-.113-.005-.225.043-.308.123-.08.08-.129.188-.129.303-.003.115.04.222.121.305.08.083.188.129.313.131h3.4259999999999997c.233 0 .426-.19.431-.426m3.126-.876l.643.021-.005.375c-.011.455-.019.927-.059 1.219l-.043.043c-.064.054-.185.118-.321.169-.311.121-.785.225-1.369.305-1.297.171-2.955.201-4.12.196-1.163.008-2.821-.024-4.118-.196-.584-.08-1.058-.185-1.372-.305-.134-.051-.255-.115-.319-.169l-.04-.048c-.043-.284-.051-.745-.059-1.192l-.011-.397.646-.021c0 .664.538 1.203 1.2 1.203.662 0 1.2-.538 1.2-1.203l-.024-.241.785-.08.088.137c.08.08.188.129.313.129h3.4259999999999997c.174 0 .327-.104.394-.257l.79.072-.024.241c0 .664.536 1.203 1.198 1.203.662 0 1.2-.538 1.2-1.203" fill="#9E9F9E"/><path d="M18.509 18.193v.804h-.956v-.538c.362-.07.662-.15.914-.249l.043-.016" fill="#4D4E4C"/><path d="M17.081 15.578c0-.19-.15-.34-.34-.34-.188 0-.338.15-.338.34 0 .193.15.343.338.343.193 0 .34-.147.34-.343m-.34-1.2c.662 0 1.2.538 1.2 1.2 0 .664-.538 1.203-1.2 1.203-.662 0-1.198-.538-1.198-1.203l.024-.241c.113-.547.595-.959 1.173-.959" fill="#000"/><path d="M16.741 15.238c.19 0 .34.15.34.34 0 .196-.147.343-.34.343-.188 0-.338-.15-.338-.343 0-.19.15-.34.338-.34" fill="#F2F1F0"/><path d="M14.378 16.018c.249.005.439.201.437.437-.005.236-.198.426-.431.426h-3.4259999999999997c-.126-.003-.233-.048-.313-.131-.08-.083-.123-.19-.121-.305 0-.115.048-.222.129-.303.083-.08.196-.129.308-.123h3.418z" fill="#000"/><path d="M14.378 14.662c.249.003.439.198.437.437l-.038.166c-.067.153-.22.257-.394.257h-3.4259999999999997c-.126 0-.233-.048-.313-.129l-.088-.137-.032-.171c.003-.236.196-.423.431-.423h3.423z" fill="#000"/><path d="M8.932 15.578c0-.19-.147-.34-.338-.34-.193 0-.34.147-.34.34 0 .196.147.343.34.343.19 0 .338-.15.338-.343m.839-.241l.024.241c0 .664-.538 1.203-1.2 1.203-.662 0-1.2-.538-1.2-1.203 0-.662.538-1.2 1.2-1.2.579 0 1.064.413 1.176.959" fill="#000"/><path d="M8.594 15.238c.19 0 .338.15.338.34 0 .193-.147.343-.338.343-.193 0-.34-.147-.34-.343 0-.193.147-.34.34-.34" fill="#F2F1F0"/><path d="M7.782 18.458v.538h-.959v-.804l.046.016c.252.099.552.179.914.249" fill="#4D4E4C"/></g></g></svg>