<svg width="24" height="24" viewBox="0 0 24 24" xmlns="http://www.w3.org/2000/svg"><title>ico-pos-motel</title><desc>Created with Sketch.</desc><g fill="none"><path d="M23.361 12.005c0 6.262-5.14 11.339-11.481 11.339s-11.481-5.077-11.481-11.339c0-6.262 5.14-11.339 11.481-11.339s11.481 5.077 11.481 11.339" fill="#FAD6A1"/><path d="M11.88 1.066c-6.11 0-11.081 4.907-11.081 10.939 0 6.031 4.971 10.938 11.081 10.938 6.11 0 11.081-4.907 11.081-10.938 0-6.032-4.971-10.939-11.081-10.939m0 22.677c-6.551 0-11.881-5.266-11.881-11.738 0-6.473 5.33-11.739 11.881-11.739s11.881 5.266 11.881 11.739c0 6.473-5.33 11.738-11.881 11.738" fill="#1A1919"/><g><path d="M13.58 14.611c1.528.168 3.021-.357 4.075-1.429.043-.043.109-.077.176-.077l.099.027c.117.067.136.181.131.275-.693 2.811-3.192 4.773-6.091 4.773l-.152-.008-.181-.011h-.008c-3.157-.16-5.755-2.76-5.917-5.917-.163-3.029 1.853-5.723 4.808-6.405.083-.021.176.021.224.107.048.085.037.189-.037.256-1.088 1.069-1.613 2.56-1.445 4.091.245 2.24 2.061 4.056 4.32 4.32" fill="#FFFFFE"/><path d="M17.831 13.104c-.067 0-.133.035-.176.077-1.053 1.072-2.547 1.597-4.075 1.429-2.259-.264-4.075-2.08-4.32-4.32-.168-1.531.357-3.021 1.445-4.091.075-.067.085-.171.037-.256-.048-.085-.141-.128-.224-.107-2.955.683-4.971 3.376-4.808 6.405.163 3.157 2.76 5.757 5.917 5.917h.008l.181.011.152.008c2.899 0 5.397-1.963 6.091-4.773.005-.093-.013-.208-.131-.275l-.099-.027m-.731-.499c.355-.328.843-.389 1.224-.171.379.216.581.632.528 1.085l-.008.045c-.771 3.187-3.597 5.413-6.875 5.413l-.211-.011-.152-.008c-3.579-.181-6.512-3.115-6.696-6.675-.184-3.419 2.093-6.456 5.416-7.224.419-.112.883.085 1.109.485.237.413.163.92-.181 1.235-.899.885-1.341 2.136-1.2 3.421.205 1.875 1.725 3.395 3.616 3.613 1.283.144 2.533-.299 3.429-1.211" fill="#000206"/></g><path d="M15.01 12.057h-2.546c-.148 0-.284-.082-.354-.213-.069-.131-.061-.29.023-.412l1.997-2.929h-1.789c-.221 0-.4-.179-.4-.4 0-.221.179-.4.4-.4h2.546c.148 0 .284.082.354.213.069.131.061.29-.023.412l-1.997 2.929h1.789c.221 0 .4.179.4.4 0 .221-.179.4-.4.4" fill="#000206"/><path d="M18.86 10.187h-2.546c-.148 0-.284-.082-.354-.213-.069-.131-.061-.29.023-.412l1.997-2.929h-1.789c-.221 0-.4-.179-.4-.4 0-.221.179-.4.4-.4h2.546c.148 0 .284.082.354.213.069.131.061.29-.023.412l-1.997 2.929h1.789c.221 0 .4.179.4.4 0 .221-.179.4-.4.4" fill="#000206"/></g></svg>