<svg width="24" height="24" viewBox="0 0 24 24" xmlns="http://www.w3.org/2000/svg"><title>ico-pos-garagiste</title><desc>Created with Sketch.</desc><g fill="none"><path d="M23.361 12.005c0 6.262-5.14 11.339-11.481 11.339s-11.481-5.077-11.481-11.339c0-6.262 5.14-11.339 11.481-11.339s11.481 5.077 11.481 11.339" fill="#FAD6A1"/><path d="M11.88 1.066c-6.11 0-11.081 4.907-11.081 10.939 0 6.031 4.971 10.938 11.081 10.938 6.11 0 11.081-4.907 11.081-10.938 0-6.032-4.971-10.939-11.081-10.939m0 22.677c-6.551 0-11.881-5.266-11.881-11.738 0-6.473 5.33-11.739 11.881-11.739s11.881 5.266 11.881 11.739c0 6.473-5.33 11.738-11.881 11.738" fill="#1A1919"/><g><path d="M18.302 9.072c.005 1.029-.416 2.069-1.128 2.781l-.003.003c-.651.651-1.557 1.016-2.544 1.027l-1.859.029-5.109 5.112c-.237.235-.555.365-.893.365-.347 0-.675-.139-.92-.387-.528-.528-.525-1.387 0-1.915l5.045-5.043.101-1.843c.016-.904.4-1.781 1.075-2.456.616-.616 1.541-1.032 2.48-1.117l.667-.059-2.648 2.549v.168c0 .763.299 1.48.837 2.021.541.541 1.259.84 2.021.837h.259l2.616-2.64.003.565z" fill="#777776"/><path d="M5.31 18.571c-.837-.843-.845-2.203-.013-3.035l4.832-4.832.085-1.531c.019-1.101.483-2.16 1.301-2.979.853-.853 2.117-1.36 3.384-1.36.189 0 .379.011.557.035.261.032.475.2.557.44.091.261.011.565-.192.768l-2.472 2.376.016.117c.131.955.92 1.707 1.88 1.789l.112.011 2.379-2.413c.141-.141.32-.216.515-.216.379 0 .712.272.771.632.243 1.445-.256 2.992-1.299 4.032v.003c-.797.797-1.893 1.243-3.088 1.256l-1.536.024-4.888 4.885c-.387.387-.901.6-1.448.603-.549-.003-1.067-.216-1.453-.605zm.536-2.483c-.525.528-.528 1.387 0 1.915.245.248.573.387.92.387.339 0 .656-.131.893-.365l5.109-5.112 1.859-.029c.987-.011 1.893-.376 2.544-1.027l.003-.003c.712-.712 1.133-1.752 1.128-2.781l-.003-.565-2.616 2.64h-.259c-.763.003-1.48-.296-2.021-.837-.539-.541-.837-1.259-.837-2.021v-.168l2.648-2.549-.667.059c-.939.085-1.864.501-2.48 1.117-.675.675-1.059 1.552-1.075 2.456l-.101 1.843-5.045 5.043z" fill="#000206"/></g></g></svg>