<svg width="24" height="24" viewBox="0 0 24 24" xmlns="http://www.w3.org/2000/svg"><title>ico-pos-hopital</title><desc>Created with Sketch.</desc><g fill="none"><path d="M23.361 12.005c0 6.262-5.14 11.339-11.481 11.339s-11.481-5.077-11.481-11.339c0-6.262 5.14-11.339 11.481-11.339s11.481 5.077 11.481 11.339" fill="#FAD6A1"/><path d="M11.88 1.066c-6.11 0-11.081 4.907-11.081 10.939 0 6.031 4.971 10.938 11.081 10.938 6.11 0 11.081-4.907 11.081-10.938 0-6.032-4.971-10.939-11.081-10.939m0 22.677c-6.551 0-11.881-5.266-11.881-11.738 0-6.473 5.33-11.739 11.881-11.739s11.881 5.266 11.881 11.739c0 6.473-5.33 11.738-11.881 11.738" fill="#1A1919"/><g><path d="M14.62 6.131v-.763c0-.275-.208-.48-.486-.48h-4.506c-.278 0-.486.205-.486.48v.763h5.478zm4.223 9.699v-6.749c0-1.163-.756-2.107-1.685-2.107h-10.555c-.929 0-1.685.944-1.685 2.107v6.749c0 1.165.756 2.115 1.685 2.115h10.555c.929 0 1.685-.949 1.685-2.115zm.853-6.749v6.749c0 1.629-1.139 2.957-2.538 2.957h-10.555c-1.398 0-2.538-1.328-2.538-2.957v-6.749c0-1.627 1.139-2.949 2.538-2.949h1.685v-.763c0-.731.599-1.323 1.339-1.323h4.506c.74 0 1.339.592 1.339 1.323v.763h1.685c1.398 0 2.538 1.323 2.538 2.949z" fill="#1A1919"/><path d="M15.648 13.811v-2.709c0-.232-.192-.421-.427-.421h-1.547v-1.523c0-.232-.189-.421-.427-.421h-2.7889999999999997c-.219.024-.381.205-.378.421v1.523h-1.542c-.235 0-.426.189-.426.421v2.709c0 .232.192.419.426.421h1.542v1.525c0 .232.189.421.424.421h2.743c.238 0 .427-.189.427-.421v-1.525h1.547c.235-.003.427-.189.427-.421m3.194-4.731v6.749c0 1.165-.756 2.115-1.685 2.115h-10.554c-.929 0-1.685-.949-1.685-2.115v-6.749c0-1.163.756-2.107 1.685-2.107h10.554c.929 0 1.685.944 1.685 2.107" fill="#AB2430"/><path d="M14.795 13.39v-1.867h-1.547c-.235 0-.424-.189-.426-.421v-1.523h-1.887v1.523c-.003.232-.192.421-.429.421h-1.539v1.867h1.539c.238 0 .427.189.429.421v1.525h1.887v-1.525c.003-.232.191-.421.426-.421h1.547zm.853-2.288v2.709c0 .232-.192.419-.427.421h-1.547v1.525c0 .232-.189.421-.427.421h-2.743c-.235 0-.424-.189-.424-.421v-1.525h-1.542c-.235-.003-.427-.189-.427-.421v-2.709c0-.232.192-.421.427-.421h1.542v-1.523c-.003-.216.159-.397.378-.421h2.7889999999999997c.238 0 .427.189.427.421v1.523h1.547c.235 0 .427.189.427.421z" fill="#1A1919"/><path d="M14.795 11.523v1.867h-1.547c-.235 0-.424.189-.426.421v1.525h-1.887v-1.525c-.003-.232-.192-.421-.429-.421h-1.539v-1.867h1.539c.238 0 .427-.189.429-.421v-1.523h1.887v1.523c.003.232.191.421.426.421h1.547z" fill="#FFFFFE"/></g></g></svg>