<svg width="25" height="24" viewBox="0 0 25 24" xmlns="http://www.w3.org/2000/svg"><title>ico-pos-fonderie</title><desc>Created with Sketch.</desc><g fill="none"><path d="M24.077 12.005c0 6.262-5.077 11.339-11.339 11.339-6.262 0-11.338-5.077-11.338-11.339 0-6.262 5.076-11.339 11.338-11.339s11.339 5.077 11.339 11.339" stroke="#000" fill="#B4B5B4"/><g><path d="M15.492 16.603c.227-1.245-.813-2.099-1.648-2.787l-.461-.389c-.517-.475-.731-1.077-.624-1.757-1.184.712-1.944 2.213-1.835 3.685.013.16-.059.312-.189.408-.133.093-.301.112-.448.051-.125-.053-.243-.128-.347-.219-.128.899.045 1.797.477 2.451.472.712 1.224 1.115 2.189 1.171l.043.003h.419c.96-.045 1.693-.371 2.176-.973.301-.373.456-.789.536-1.109-.211-.096-.331-.309-.288-.533m1.773.643c.741-.987 1.003-2.096 1.075-2.744-.229.283-.493.296-.6.168-.035-.045-.048-.101-.037-.157.547-2.432-1.371-4.139-2.771-5.387-.261-.232-.509-.453-.715-.656-.376-.368-.621-.784-.733-1.237l-.048-.24-.013-.12-.011-.243c0-.557.176-1.157.525-1.787-2.875.669-5.157 3.872-5.045 7.163l.008.216-.197-.091c-.533-.248-.891-.837-.976-1.552-.88 2.059-.805 4.488.229 6.2.333.547.837 1.147 1.597 1.616-.72-1.229-.765-2.96-.093-4.379.093-.197.315-.301.528-.248l.168.08c.445-1.72 1.757-3.104 3.288-3.429.181-.037.363.032.469.181.104.141.117.339.027.496-.403.704-.381 1.245.064 1.651l.096.085.275.229.051.043.141.117.307.259.317.288c.728.699 1.12 1.363 1.227 2.085l.165.075.053.048.115.181c.083.248.064 1.115-.357 1.981.325-.253.616-.552.872-.893m1.968-3.539c.141.485-.021 2.48-1.232 4.091-.768 1.021-2.221 2.229-4.821 2.333l-.096.008-.229.003h-.037000000000000005c-2.515 0-4.523-1.027-5.648-2.888-1.28-2.117-1.288-5.173-.019-7.603l.064-.109.179-.176c.107-.077.235-.128.368-.144l.149-.003c.149.008.296.064.416.157.288-.949.741-1.84 1.349-2.651 1.165-1.552 2.725-2.563 4.395-2.845l.133-.011c.261 0 .507.128.653.347.171.259.176.595.013.856-1.061 1.699-.269 2.485-.008 2.741.189.189.429.4.68.624 1.24 1.104 2.92 2.6 3.152 4.733.256.072.461.275.539.536" fill="#000"/><path d="M18.34 14.502c-.072.648-.333 1.757-1.075 2.744-.256.341-.547.64-.872.893.421-.867.44-1.733.357-1.981l-.115-.181-.053-.048-.165-.075c-.107-.723-.499-1.387-1.227-2.085l-.317-.288-.307-.259-.141-.117-.051-.043-.275-.229-.096-.085c-.445-.405-.467-.947-.064-1.651.091-.157.077-.355-.027-.496-.107-.149-.288-.219-.469-.181-1.531.325-2.843 1.709-3.288 3.429l-.168-.08c-.213-.053-.435.051-.528.248-.672 1.419-.627 3.149.093 4.379-.76-.469-1.264-1.069-1.597-1.616-1.035-1.712-1.109-4.141-.229-6.2.085.715.443 1.304.976 1.552l.197.091-.008-.216c-.112-3.291 2.171-6.493 5.045-7.163-.349.629-.525 1.229-.525 1.787l.011.243.013.12.048.24c.112.453.357.869.733 1.237.205.203.453.424.715.656 1.4 1.248 3.317 2.955 2.771 5.387-.011.056.003.112.037.157.107.128.371.115.6-.168" fill="#E46B42"/><path d="M13.844 13.816c.835.688 1.875 1.541 1.648 2.787-.043.224.077.437.288.533-.08.32-.235.736-.536 1.109-.483.603-1.216.928-2.176.973h-.419l-.043-.003c-.965-.056-1.717-.459-2.189-1.171-.432-.653-.605-1.552-.477-2.451.104.091.221.165.347.219.147.061.315.043.448-.051.131-.096.203-.248.189-.408-.109-1.472.651-2.973 1.835-3.685-.107.68.107 1.283.624 1.757l.461.389" fill="#FFF36F"/></g></g></svg>