<svg width="24" height="24" viewBox="0 0 24 24" xmlns="http://www.w3.org/2000/svg"><title>ico-pos-revente_acier</title><desc>Created with Sketch.</desc><g fill="none"><path d="M22.824 12.269c0 6.193-5.021 11.214-11.214 11.214-6.193 0-11.214-5.021-11.214-11.214 0-6.193 5.02-11.214 11.214-11.214 6.193 0 11.214 5.021 11.214 11.214" fill="#B4B5B4"/><path d="M19.941 15.366c-.316 1.091-1.033 2.236-2.022 3.225-.477.477-.991.892-1.517 1.228l-.391-.611c.486-.307.963-.689 1.4-1.126.885-.885 1.525-1.894 1.799-2.844.256-.889.162-1.614-.265-2.042l-1.013-1.013c.079.444.04.947-.113 1.484-.289 1.002-.945 2.049-1.85 2.954-.271.27-.554.517-.845.738l-.44-.565c.265-.203.526-.431.777-.682.793-.793 1.388-1.731 1.63-2.577.231-.797.145-1.446-.238-1.828l-3.813-3.813c-.027.156-.06.305-.102.446-.313 1.091-1.031 2.237-2.022 3.228-.477.477-.989.89-1.514 1.225l-.389-.605c.486-.307.961-.687 1.398-1.124.887-.887 1.525-1.897 1.799-2.848.256-.888.165-1.612-.263-2.04l-1.254-1.254c-.428-.428-1.151-.519-2.04-.263-.951.274-1.961.912-2.848 1.799-.437.437-.817.912-1.124 1.398l-.611-.391c.336-.527.75-1.038 1.227-1.515.991-.991 2.135-1.707 3.226-2.024 1.141-.329 2.141-.174 2.74.426l1.254 1.254c.305.305.493.705.561 1.197l3.499 3.499c.481.071.874.26 1.175.561l1.762 1.762c.599.6.755 1.6.426 2.74" fill="#000206"/><path d="M16.403 19.819c-.565.36-1.144.632-1.709.795-1.135.327-2.133.17-2.735-.431l-1.762-1.762c-.314-.314-.508-.724-.574-1.221l-3.469-3.47c-.484-.068-.885-.26-1.192-.567l-1.254-1.254c-.601-.601-.759-1.6-.431-2.735.162-.565.435-1.144.795-1.709l.611.391c-.307.486-.539.978-.673 1.448-.258.887-.165 1.612.263 2.04l1.254 1.254c.428.428 1.151.519 2.04.263.47-.133.962-.366 1.448-.673l.39.605c-.567.362-1.148.632-1.713.795-.139.04-.283.075-.437.1l3.809 3.809c.382.382 1.031.468 1.828.238.591-.17 1.205-.495 1.793-.941l.44.565c-.682.525-1.406.908-2.108 1.11-.559.161-1.082.194-1.534.108l1.04 1.04c.428.428 1.154.521 2.042.265.468-.135.962-.366 1.446-.675l.391.611z" fill="#000206"/><path d="M19.21 15.238c-.274.951-.914 1.96-1.799 2.844-.437.437-.914.819-1.4 1.126-.484.309-.978.539-1.446.675-.889.256-1.614.163-2.042-.265l-1.04-1.04c.452.086.974.053 1.534-.108.702-.201 1.426-.585 2.108-1.11.291-.221.574-.468.844-.738.905-.905 1.561-1.952 1.85-2.954.154-.537.192-1.04.113-1.484l1.013 1.013c.428.428.521 1.153.265 2.042" fill="#9E9F9E"/><path d="M15.461 16.113c-.251.251-.512.479-.777.682-.589.446-1.203.771-1.793.942-.797.23-1.446.144-1.828-.238l-3.81-3.81c.153-.026.298-.06.437-.1.565-.163 1.146-.433 1.713-.795.525-.334 1.036-.748 1.514-1.225.991-.991 1.709-2.137 2.022-3.228.042-.141.075-.291.102-.446l3.813 3.813c.382.382.468 1.031.238 1.828-.243.846-.837 1.784-1.631 2.577" fill="#FFFFFE"/><path d="M9.056 9.708c.762-.762 1.338-1.623 1.618-2.422.309-.879.234-1.605-.207-2.046-.441-.44-1.166-.515-2.046-.207-.81.283-1.671.856-2.428 1.612-.751.751-1.322 1.611-1.607 2.418-.307.885-.236 1.614.203 2.053.439.439 1.168.51 2.051.201.799-.28 1.656-.852 2.415-1.61m3.155-1.492c-.274.951-.912 1.961-1.799 2.848-.437.437-.912.817-1.398 1.124-.486.307-.978.539-1.448.673-.888.256-1.612.165-2.04-.263l-1.254-1.254c-.428-.428-.521-1.153-.263-2.04.133-.47.366-.962.673-1.448.307-.486.687-.962 1.124-1.399.887-.886 1.898-1.524 2.848-1.799.889-.256 1.612-.165 2.04.263l1.254 1.254c.428.428.519 1.152.263 2.04" fill="#9E9F9E"/><path d="M8.553 9.205c.658-.658 1.172-1.42 1.406-2.093.21-.598.188-1.062-.057-1.307-.247-.247-.711-.265-1.309-.059-.671.236-1.435.748-2.093 1.406-.652.653-1.163 1.415-1.398 2.086-.207.598-.188 1.062.059 1.309.245.245.711.265 1.307.057.673-.234 1.433-.746 2.086-1.398m2.12-1.919c-.28.799-.856 1.66-1.618 2.422-.759.759-1.616 1.331-2.415 1.61-.883.309-1.612.238-2.051-.201-.439-.439-.51-1.168-.203-2.053.285-.808.856-1.667 1.607-2.418.757-.757 1.618-1.329 2.428-1.612.879-.309 1.605-.234 2.046.207.44.441.515 1.166.207 2.046" fill="#000206"/><path d="M9.959 7.112c-.234.673-.748 1.435-1.406 2.093-.652.653-1.413 1.164-2.086 1.398-.596.209-1.062.188-1.307-.056-.247-.247-.265-.711-.059-1.309.236-.671.746-1.433 1.398-2.086.658-.658 1.422-1.17 2.093-1.406.598-.207 1.062-.188 1.309.059.245.245.267.709.057 1.307" fill="#000206"/><path d="M19.086 8.927c-2.279 0-4.134-1.854-4.134-4.134 0-2.279 1.854-4.134 4.134-4.134 2.279 0 4.134 1.855 4.134 4.134 0 2.279-1.854 4.134-4.134 4.134" fill="#1A1919"/><path d="M11.61 23.087c-5.965 0-10.818-4.853-10.818-10.818s4.853-10.818 10.818-10.818c1.34 0 2.624.247 3.809.694-.54.746-.862 1.659-.862 2.648 0 2.497 2.032 4.529 4.529 4.529.989 0 1.902-.322 2.648-.862.448 1.185.694 2.469.694 3.809 0 5.965-4.853 10.818-10.818 10.818m9.808-15.376c-.64.512-1.449.819-2.332.819-2.064 0-3.738-1.674-3.738-3.738 0-.883.308-1.693.82-2.332 2.307 1.077 4.174 2.943 5.25 5.251m-2.332-6.657c2.065 0 3.738 1.674 3.738 3.738 0 .879-.306 1.686-.814 2.325-1.129-2.27-2.979-4.12-5.249-5.249.639-.508 1.445-.814 2.325-.814m4.529 3.738c0-2.498-2.032-4.529-4.529-4.529-1.206 0-2.301.477-3.114 1.249-1.348-.548-2.82-.853-4.362-.853-6.401 0-11.61 5.208-11.61 11.61 0 6.402 5.208 11.61 11.61 11.61 6.401 0 11.61-5.208 11.61-11.61 0-1.542-.305-3.014-.853-4.362.772-.813 1.249-1.908 1.249-3.114" fill="#1A1919"/><path d="M19.381 6.8v.669h-.643v-.623c-.44-.02-.866-.137-1.115-.282l.197-.767c.275.151.663.289 1.089.289.374 0 .63-.144.63-.407 0-.249-.21-.407-.695-.571-.702-.236-1.181-.564-1.181-1.2 0-.577.407-1.03 1.108-1.168v-.623h.643v.577c.44.02.735.112.951.217l-.19.741c-.17-.072-.472-.223-.944-.223-.426 0-.564.184-.564.367 0 .217.23.354.787.564.781.275 1.096.636 1.096 1.227 0 .584-.413 1.082-1.168 1.213m-.295-5.745c-2.065 0-3.738 1.674-3.738 3.738 0 2.065 1.673 3.738 3.738 3.738 2.064 0 3.738-1.674 3.738-3.738s-1.674-3.738-3.738-3.738" fill="#FFF36F"/></g></svg>