<svg width="24" height="24" viewBox="0 0 24 24" xmlns="http://www.w3.org/2000/svg"><title>ico-pos-scierie</title><desc>Created with Sketch.</desc><g fill="none"><path d="M23.077 12.005c0 6.262-5.077 11.339-11.339 11.339-6.262 0-11.338-5.077-11.338-11.339 0-6.262 5.076-11.339 11.338-11.339s11.339 5.077 11.339 11.339" fill="#AF957B"/><path d="M11.739 1.067c-6.031 0-10.939 4.907-10.939 10.939 0 6.031 4.907 10.939 10.939 10.939 6.031 0 10.939-4.907 10.939-10.939s-4.907-10.939-10.939-10.939m0 22.677c-6.473 0-11.739-5.266-11.739-11.739 0-6.473 5.266-11.739 11.739-11.739 6.473 0 11.739 5.266 11.739 11.739 0 6.473-5.266 11.739-11.739 11.739" fill="#1A1919"/><g><path d="M16.399 13.095l1.861-2.48h-1.949l.403-3.077-1.688.987-1.213-2.867-.984 1.688-2.48-1.883v1.971l-3.077-.405.987 1.688-2.867 1.213 1.688.984-1.883 2.48h1.971l-.405 3.077 1.688-.984 1.213 2.864.984-1.688 2.48 1.864v-1.952l3.077.405-.984-1.688 2.864-1.213-1.685-.984zm3.797 1.107l-3.624 1.531 1.389 2.408-3.901-.491v2.776l-3.131-2.373-1.389 2.411-1.531-3.624-2.408 1.389.493-3.901h-2.779l2.373-3.131-2.408-1.389 3.621-1.531-1.389-2.408 3.904.493v-2.779l3.131 2.373 1.387-2.408 1.531 3.621 2.408-1.389-.491 3.904h2.779l-2.376 3.128 2.411 1.389z" fill="#000206"/><path d="M13.935 12.005c0-1.213-.984-2.197-2.197-2.197s-2.197.984-2.197 2.197.984 2.197 2.197 2.197 2.197-.984 2.197-2.197zm4.325-1.389l-1.861 2.48 1.685.984-2.864 1.213.984 1.688-3.077-.405v1.952l-2.48-1.864-.984 1.688-1.213-2.864-1.688.984.405-3.077h-1.971l1.883-2.48-1.688-.984 2.867-1.213-.987-1.688 3.077.405v-1.971l2.48 1.883.984-1.688 1.213 2.867 1.688-.987-.403 3.077h1.949z" fill="#FFFFFE"/><path d="M13.005 12.005c0-.704-.563-1.267-1.267-1.267s-1.267.563-1.267 1.267.563 1.267 1.267 1.267 1.267-.563 1.267-1.267m-1.267-2.197c1.213 0 2.197.984 2.197 2.197s-.984 2.197-2.197 2.197-2.197-.984-2.197-2.197.984-2.197 2.197-2.197" fill="#000206"/><path d="M11.738 10.738c.704 0 1.267.563 1.267 1.267s-.563 1.267-1.267 1.267-1.267-.563-1.267-1.267.563-1.267 1.267-1.267" fill="#AF957B"/></g></g></svg>