<svg width="24" height="24" viewBox="0 0 24 24" xmlns="http://www.w3.org/2000/svg" xmlns:xlink="http://www.w3.org/1999/xlink"><title>ico-pos-poisson-achat</title><desc>Created with Sketch.</desc><defs><path id="a" d="M.049.118h8.793v8.792h-8.793z"/></defs><g fill="none"><path d="M22.898 11.909c0 6.012-4.873 10.885-10.885 10.885s-10.885-4.873-10.885-10.885 4.873-10.885 10.885-10.885 10.885 4.873 10.885 10.885" stroke="#000" fill="#B9E1ED"/><path d="M19.27 8.665c-2.212 0-4.012-1.8-4.012-4.013 0-2.212 1.8-4.012 4.012-4.012 2.213 0 4.013 1.8 4.013 4.012 0 2.213-1.8 4.013-4.013 4.013" fill="#1A1919"/><g transform="translate(14.824 .138)"><mask id="b"><use xlink:href="#a"/></mask><path d="M4.446.118c-2.424 0-4.396 1.972-4.396 4.396s1.972 4.396 4.396 4.396 4.396-1.972 4.396-4.396-1.972-4.396-4.396-4.396m0 .768c2.004 0 3.628 1.625 3.628 3.628 0 2.004-1.624 3.628-3.628 3.628s-3.628-1.624-3.628-3.628 1.624-3.628 3.628-3.628" fill="#000" mask="url(#b)"/></g><path d="M19.556 6.601v.649h-.624v-.605c-.427-.019-.84-.133-1.082-.274l.191-.745c.267.147.643.28 1.057.28.363 0 .611-.14.611-.395 0-.242-.204-.395-.675-.554-.681-.229-1.146-.548-1.146-1.165 0-.56.395-1 1.076-1.133v-.605h.624v.56c.427.019.713.108.923.21l-.185.719c-.165-.07-.458-.217-.917-.217-.414 0-.548.178-.548.357 0 .21.223.344.764.548.758.267 1.063.617 1.063 1.191 0 .567-.401 1.05-1.133 1.178m-.286-5.577c-2.004 0-3.628 1.625-3.628 3.628 0 2.004 1.624 3.629 3.628 3.629s3.628-1.625 3.628-3.629-1.625-3.628-3.628-3.628" fill="#FFF36F"/><path d="M17.452 15.338c-.443.062-.853.264-1.15.57l-.288.301c-.304.295-.503.702-.565 1.146-.058.421.029.835.219 1.155.137-.293.266-.705.328-1.166v-.013c.095-.747.687-1.338 1.438-1.438l.009-.004c.459-.064.873-.191 1.166-.328-.321-.193-.731-.275-1.157-.222m-6.436-4.437c-.767.767-1.718 1.279-2.715 1.487.195.248.403.487.632.716 1.748 1.748 4.199 2.533 6.334 2.052.478-2.132-.304-4.585-2.052-6.334-.228-.228-.467-.436-.716-.632-.208.997-.722 1.95-1.482 2.71m-4.137-4.129c-.335 1.478-.06 3.105.718 4.543.931-.071 1.861-.51 2.588-1.236.725-.725 1.161-1.653 1.236-2.588-1.441-.776-3.067-1.05-4.543-.718m-1.033-.643c.056-.188.204-.337.392-.392 1.272-.368 2.666-.357 4.033.036 1.394.397 2.693 1.168 3.763 2.238 1.068 1.068 1.839 2.367 2.236 3.761.246.871.341 1.755.284 2.606.237-.091.485-.157.736-.191.931-.12 1.808.159 2.4.751.111.111.206.228.295.357.135.197.133.456.002.654l-.202.233c-.441.41-1.274.738-2.178.858l-.011.002c-.237.029-.421.213-.45.45l-.002.011c-.12.904-.448 1.737-.856 2.176l-.235.204c-.197.131-.457.133-.654-.002-.831-.565-1.256-1.598-1.108-2.695.038-.255.1-.499.19-.736-.853.06-1.735-.038-2.606-.284-1.394-.397-2.693-1.168-3.761-2.236-1.071-1.07-1.842-2.369-2.238-3.763-.392-1.367-.403-2.766-.031-4.038" fill="#000206"/><path d="M7.827 7.721c-.295.295-.293.771.002 1.066.295.295.771.297 1.066.002.292-.293.29-.769-.005-1.064-.295-.295-.771-.297-1.064-.004m-.23 3.594c-.778-1.438-1.053-3.065-.718-4.543 1.476-.333 3.102-.058 4.543.718-.075.935-.512 1.864-1.236 2.588-.727.727-1.658 1.166-2.588 1.236" fill="#E4D780"/><path d="M7.829 8.787c-.295-.295-.297-.771-.002-1.066.293-.293.769-.29 1.064.004.295.295.297.771.004 1.064-.295.295-.771.292-1.066-.002" fill="#000206"/><path d="M8.301 12.388c.997-.208 1.948-.72 2.715-1.487.76-.76 1.274-1.713 1.483-2.71.248.195.487.403.716.632 1.748 1.749 2.531 4.202 2.052 6.334-2.134.481-4.585-.304-6.334-2.052-.228-.228-.436-.467-.632-.716" fill="#EC9883"/><path d="M16.302 15.907c.297-.306.707-.507 1.15-.57.425-.053.835.029 1.157.222-.293.137-.707.264-1.166.328l-.009.004c-.751.1-1.343.691-1.438 1.438v.013c-.062.461-.19.873-.328 1.166-.19-.319-.277-.733-.219-1.155.062-.443.262-.851.565-1.146l.288-.301" fill="#F4C4B1"/></g></svg>