<svg width="24" height="24" viewBox="0 0 24 24" xmlns="http://www.w3.org/2000/svg"><title>ico-pos-foret</title><desc>Created with Sketch.</desc><g fill="none"><path d="M23.077 12.005c0 6.262-5.077 11.339-11.339 11.339-6.262 0-11.338-5.077-11.338-11.339 0-6.262 5.076-11.339 11.338-11.339s11.339 5.077 11.339 11.339" fill="#AF957B"/><path d="M11.739 1.066c-6.031 0-10.939 4.907-10.939 10.939 0 6.031 4.907 10.938 10.939 10.938 6.031 0 10.939-4.907 10.939-10.938 0-6.032-4.907-10.939-10.939-10.939m0 22.677c-6.473 0-11.739-5.266-11.739-11.738 0-6.473 5.266-11.739 11.739-11.739 6.473 0 11.739 5.266 11.739 11.739 0 6.473-5.266 11.738-11.739 11.738" fill="#1A1919"/><path d="M14.727 14.255l1.512 2.624c-1.419.525-3.008.488-4.403-.117l-.061-.019h-.013l-.04-.003-.037.003h-.013l-.051.016-.011.003c-1 .432-2.099.573-3.163.421l.051-.088c.077-.136.032-.307-.104-.384-.133-.077-.307-.032-.384.104l-.147.256c-.211-.053-.419-.115-.624-.192l1.515-2.621c.304.051.611.08.923.08h.04c.157-.003.28-.128.28-.283l-.005-.056.717-.04c.035.125.147.211.272.211l.072-.011c.227-.059.451-.136.669-.227.661.269 1.363.405 2.067.405l.152-.003.019.003.021-.005c.251-.008.499-.035.747-.077" fill="#0D5D35"/><path d="M15.633 19.877c.152.032.251.179.221.331-.027.133-.144.227-.277.227l-.053-.005-.52-.096c-.155-.027-.256-.171-.229-.323.024-.155.171-.256.323-.232l.536.099" fill="#000206"/><path d="M14.044 11.066l1.4 2.424c-.419.149-.856.24-1.293.272l-.144-.384c-.053-.147-.213-.219-.36-.165-.147.053-.221.213-.165.36l.072.197c-.587-.027-1.168-.16-1.717-.395l-.008-.005h-.005l-.045-.013-.016-.003-.037-.003-.035.003-.016.003-.048.013h-.005l-.008.005c-.227.096-.464.179-.704.24-.149.04-.24.195-.2.344l-.717.04c-.027-.128-.141-.224-.275-.224h-.003c-.344.005-.677-.027-1.005-.093l-.072-.016c-.205-.045-.405-.104-.603-.176l1.4-2.424c.187.024.371.037.557.037.589 0 1.181-.123 1.739-.365.147.064.299.123.451.171l.085.013c.117 0 .229-.077.267-.197l.557.035-.005.056c-.005.157.117.285.272.291h.117c.189 0 .381-.013.571-.04" fill="#0B8B42"/><path d="M11.74 4.458l3.093 5.835c-.469.179-.957.264-1.461.251h-.008c-.133 0-.245.091-.275.216l-.557-.035c.045-.149-.035-.307-.184-.352-.171-.053-.339-.12-.501-.195l-.016-.008-.019-.005-.032-.008-.024-.003-.029-.003-.029.003-.021.003-.035.008-.016.005-.019.008c-.317.149-.648.251-.987.309l.061-.227c.04-.149-.048-.304-.2-.344-.149-.04-.304.048-.344.2l-.112.421c-.467.005-.933-.077-1.379-.248l3.093-5.832z" fill="#2BAB6E"/><path d="M12.228 17.509v1.784c0 .067-.053.12-.12.12h-.739c-.064 0-.12-.056-.12-.12v-1.797l.472-.173.507.187" fill="#7D563A"/><path d="M9.66 19.885c.019.155-.091.293-.245.312-.488.059-.981.136-1.459.232l-.056.005c-.131 0-.248-.093-.275-.227-.032-.152.067-.299.219-.331.496-.096 1-.179 1.504-.237.155-.021.293.091.312.245" fill="#000206"/><path d="M12.228 19.293v-1.784c-.171-.056-.339-.117-.507-.187l-.472.173v1.797c0 .064.056.12.12.12h.739c.067 0 .12-.053.12-.12m4.011-2.413l-1.512-2.624c-.248.043-.496.069-.747.077l-.021.005-.019-.003-.152.003c-.704 0-1.405-.136-2.067-.405-.219.091-.443.168-.669.227l-.072.011c-.125 0-.237-.085-.272-.211-.04-.149.051-.304.2-.344.24-.061.477-.144.704-.24l.008-.005h.005l.048-.013.016-.003.035-.003.037.003.016.003.045.013h.005l.008.005c.549.235 1.131.368 1.717.395l-.072-.197c-.056-.147.019-.307.165-.36.147-.053.307.019.36.165l.144.384c.437-.032.875-.123 1.293-.272l-1.4-2.424c-.189.027-.381.04-.571.04h-.117c-.155-.005-.277-.133-.272-.291l.005-.056c.029-.125.141-.216.275-.216h.008c.504.013.992-.072 1.461-.251l-3.093-5.835-3.093 5.832c.445.171.912.253 1.379.248l.112-.421c.04-.152.195-.24.344-.2.152.04.24.195.2.344l-.061.227c.339-.059.669-.16.987-.309l.019-.008.016-.005.035-.008.021-.003.029-.003.029.003.024.003.032.008.019.005.016.008c.163.075.331.141.501.195.149.045.229.203.184.352-.037.12-.149.197-.267.197l-.085-.013c-.152-.048-.304-.107-.451-.171-.557.243-1.149.365-1.739.365-.187 0-.371-.013-.557-.037l-1.4 2.424c.197.072.397.131.603.176l.072.016c.328.067.661.099 1.005.093h.003c.133 0 .248.096.275.224l.005.056c0 .155-.123.28-.28.283h-.04c-.312 0-.619-.029-.923-.08l-1.515 2.621c.205.077.413.139.624.192l.147-.256c.077-.136.251-.181.384-.104.136.077.181.248.104.384l-.051.088c1.064.152 2.163.011 3.163-.421l.011-.003.051-.016h.013l.037-.003.04.003h.013l.061.019c1.395.605 2.984.643 4.403.117m.685.136v.005l-.003.051-.003.003-.013.048v.003l-.024.045-.003.003-.029.037-.005.008-.032.027-.013.008-.013.011-.016.005-.016.011c-.816.352-1.693.528-2.571.528-.467 0-.936-.051-1.395-.152v1.635l-.043.232c.48.024.957.064 1.432.123.155.019.264.16.245.312-.016.144-.139.248-.277.248l-.035-.003c-1.213-.147-2.445-.181-3.669-.101-.149.008-.288-.107-.299-.261-.008-.155.107-.288.264-.299l.325-.019-.043-.232v-1.643c-.464.104-.939.157-1.413.157-.445 0-.888-.045-1.325-.139l-.029-.005c-.408-.088-.805-.213-1.192-.379l-.139-.12c-.051-.088-.051-.195 0-.283l1.589-2.752c-.224-.067-.445-.144-.664-.237l-.013-.008-.016-.005-.013-.011-.013-.008-.032-.029-.005-.005-.029-.037-.003-.005-.021-.043-.003-.005-.013-.045-.003-.008-.003-.045v-.011l.005-.043.003-.013.013-.04.003-.008.003-.008.011-.019 1.467-2.544c-.243-.067-.483-.152-.717-.264l-.005-.003-.008-.003-.021-.013-.019-.013-.029-.027-.008-.008-.027-.037-.005-.008-.021-.045c-.027-.072-.024-.155.016-.227l3.485-6.576c.048-.091.144-.149.248-.149.104 0 .197.059.248.149l3.485 6.576c.037.072.04.155.013.227v.003l-.021.045-.005.005-.027.037-.008.008-.029.027-.019.013-.021.013-.008.003-.005.003c-.232.109-.472.197-.717.264l1.469 2.544.008.021.005.008v.005l.013.04.003.013.005.043v.011l-.003.045-.003.008-.013.045-.003.005-.021.043-.003.005-.029.037-.005.005-.032.029-.013.008-.013.011-.016.005-.013.008c-.216.093-.437.171-.661.235l1.589 2.755.011.027.003.003v.003l.016.051v.003l.005.051" fill="#000206"/></g></svg>