<svg width="25" height="25" viewBox="0 0 25 25" xmlns="http://www.w3.org/2000/svg"><title>ico-pos-commisariat</title><desc>Created with Sketch.</desc><g fill="none"><path d="M24.202 12.525c0 6.291-5.164 11.391-11.534 11.391-6.37 0-11.534-5.1-11.534-11.391s5.164-11.391 11.534-11.391c6.37 0 11.534 5.1 11.534 11.391" stroke="#000" fill="#FED792"/><g><path d="M16.111 12.342c.104-.104.139-.255.094-.394-.046-.139-.163-.238-.308-.26l-2.009-.284-.865-2.023c-.059-.134-.193-.217-.354-.217-.161 0-.297.083-.354.217l-.868 2.023-2.007.284c-.145.021-.263.121-.311.26-.046.139-.011.289.094.394l1.433 1.433-.581 2.328c-.038.147.016.305.139.399.123.091.289.102.423.027l2.031-1.16 2.031 1.16.19.051c.086 0 .166-.027.23-.078.123-.094.179-.252.142-.399l-.581-2.328 1.431-1.433zm2.202 2.266c0 2.65-2.146 3.858-5.645 5.599-3.502-1.741-5.645-2.95-5.645-5.599 0-1.562.196-2.395.37-3.143.137-.587.265-1.141.265-1.934 0-1.256-.324-2.079-.533-2.478l.544-.547c.405.182 1.369.555 2.462.555 1.144 0 2.135-.402 2.537-.589.402.188 1.393.589 2.537.589 1.056 0 1.98-.338 2.459-.555l.547.547c-.209.399-.533 1.222-.533 2.478 0 .793.129 1.348.268 1.945.171.737.367 1.57.367 3.132z" fill="#CBCBCB"/><path d="M15.026 12.342l-1.042 1.045c-.096.094-.134.233-.102.364l.415 1.664-1.439-.822c-.115-.067-.263-.067-.383 0l-1.439.822.418-1.664c.032-.131-.005-.271-.102-.364l-1.042-1.045 1.46-.209c.134-.019.244-.104.297-.228l.6-1.396.597 1.396c.054.123.166.209.3.228l1.46.209z" fill="#FFF36F"/><path d="M11.446 11.404l.868-2.023c.056-.134.193-.217.354-.217.161 0 .295.083.354.217l.865 2.023 2.009.284c.145.021.263.121.308.26.046.139.011.289-.094.394l-1.431 1.433.581 2.328c.038.147-.019.305-.142.399-.064.051-.145.078-.23.078l-.19-.051-2.031-1.16-2.031 1.16c-.134.075-.3.064-.423-.027-.123-.094-.177-.252-.139-.399l.581-2.328-1.433-1.433c-.104-.104-.139-.255-.094-.394.048-.139.166-.238.311-.26l2.007-.284zm-1.136.938l1.042 1.045c.096.094.134.233.102.364l-.418 1.664 1.439-.822c.121-.067.268-.067.383 0l1.439.822-.415-1.664c-.032-.131.005-.271.102-.364l1.042-1.045-1.46-.209c-.134-.019-.246-.104-.3-.228l-.597-1.396-.6 1.396c-.054.123-.163.209-.297.228l-1.46.209z" fill="#000"/><path d="M17.946 11.477c-.139-.597-.268-1.152-.268-1.945 0-1.256.324-2.079.533-2.478l-.547-.547c-.48.217-1.404.555-2.459.555-1.144 0-2.135-.402-2.537-.589-.402.188-1.393.589-2.537.589-1.093 0-2.058-.372-2.462-.555l-.544.547c.209.399.533 1.222.533 2.478 0 .793-.129 1.348-.265 1.934-.174.747-.37 1.581-.37 3.143 0 2.65 2.143 3.858 5.645 5.599 3.499-1.741 5.645-2.95 5.645-5.599 0-1.562-.196-2.395-.367-3.132m.498-1.945c0 .71.115 1.2.249 1.768.179.777.386 1.656.386 3.309 0 3.054-2.358 4.445-6.242 6.374l-.169.04-.171-.04c-3.885-1.929-6.242-3.319-6.242-6.374 0-1.648.206-2.526.386-3.303.137-.581.249-1.069.249-1.774 0-1.538-.549-2.296-.555-2.304-.115-.153-.102-.37.032-.504l.954-.954c.121-.121.303-.147.455-.064.011.005 1.09.587 2.355.587 1.243 0 2.342-.581 2.352-.587.115-.062.252-.062.367 0 .013.005 1.093.587 2.355.587 1.246 0 2.344-.581 2.355-.587.15-.08.338-.054.455.064l.951.954c.137.134.15.354.032.506-.005.005-.555.764-.555 2.301" fill="#000"/></g></g></svg>